<svg width="45" height="46" viewBox="0 0 45 46" fill="none" xmlns="http://www.w3.org/2000/svg">
<ellipse cx="22.5" cy="22.6913" rx="22.5" ry="22.6923" fill="white"/>
<path d="M28 13.5705V10.4455C28 10.0883 28 9.99902 26.8 9.99902H24C20.16 9.99902 19.2 13.5705 19.2 15.3562V18.0347C19.2 18.749 18.6667 18.9276 18.4 18.9276H16.8C16.16 18.9276 16 19.5228 16 19.8205V23.3919C16 24.1062 16.5333 24.2847 16.8 24.2847H18C18.96 24.2847 19.2 24.88 19.2 25.1776V34.1062C19.2 34.8205 19.7333 34.999 20 34.999H22.8C23.76 34.999 24 34.4038 24 34.1062V25.1776C24 24.4633 24.5333 24.2847 24.8 24.2847H26.8C27.76 24.2847 28 23.6895 28 23.3919V19.8205C28 19.1062 27.2 18.9276 26.8 18.9276H25.2C24.24 18.9276 24 18.3324 24 18.0347V16.249C24 15.1776 24.8 14.9097 25.2 14.9097H26.8C27.76 14.9097 28 14.0169 28 13.5705Z" stroke="#8F3B01" stroke-width="1.5"/>
</svg>
