<svg width="45" height="46" viewBox="0 0 45 46" fill="none" xmlns="http://www.w3.org/2000/svg">
<ellipse cx="22.5" cy="22.6913" rx="22.5" ry="22.6923" fill="white"/>
<path fill-rule="evenodd" clip-rule="evenodd" d="M15.9504 10.0489C15.1315 10.1428 14.1726 10.46 13.4395 10.8796C11.5446 11.9641 10.2942 13.8608 10.0541 16.0149C9.98197 16.6619 9.98197 28.3286 10.0541 28.9756C10.4041 32.1155 12.8827 34.5948 16.0216 34.9449C16.6684 35.0171 28.3316 35.0171 28.9784 34.9449C32.1173 34.5948 34.5959 32.1155 34.9459 28.9756C35.018 28.3286 35.018 16.6619 34.9459 16.0149C34.5959 12.875 32.1173 10.3957 28.9784 10.0456C28.4039 9.98151 16.5116 9.98449 15.9504 10.0489ZM29.4851 11.6124C30.4996 11.8923 31.281 12.3365 31.9684 13.024C32.6554 13.7113 33.099 14.4919 33.3799 15.5081L33.5092 15.9756V22.4953V29.0149L33.3799 29.4824C33.099 30.4986 32.6554 31.2792 31.9684 31.9665C31.2813 32.6537 30.5009 33.0975 29.4851 33.3785L29.0176 33.5078H22.5H15.9824L15.5149 33.3785C14.4991 33.0975 13.7187 32.6537 13.0316 31.9665C12.3446 31.2792 11.901 30.4986 11.6201 29.4824L11.4908 29.0149V22.4953V15.9756L11.6201 15.5081C11.9007 14.4932 12.3446 13.7112 13.029 13.0267C13.8396 12.2158 14.909 11.6762 16.0312 11.5117C16.1923 11.4881 19.1802 11.4721 22.6709 11.4761L29.0176 11.4835L29.4851 11.6124ZM29.2617 13.2513C28.0729 13.4153 27.2591 14.5742 27.5461 15.6948C27.7504 16.4929 28.254 16.9984 29.0471 17.2017C30.3879 17.5453 31.7073 16.3277 31.4836 14.9531C31.3591 14.1875 30.8 13.5448 30.0673 13.325C29.8543 13.2611 29.4554 13.2246 29.2617 13.2513ZM29.8093 14.8094C30.0714 14.9729 30.1148 15.3814 29.8945 15.6113C29.718 15.7957 29.495 15.8389 29.2702 15.7322C28.9289 15.5702 28.8555 15.1225 29.1281 14.8657C29.331 14.6746 29.5624 14.6555 29.8093 14.8094ZM21.5591 15.7333C18.8583 16.1015 16.5799 18.1355 15.89 20.7942C15.2846 23.1276 15.9621 25.5854 17.6865 27.3102C20.3733 29.9979 24.6267 29.9979 27.3135 27.3102C30.0003 24.6226 30.0003 20.3658 27.3135 17.6808C25.7714 16.1397 23.7057 15.4406 21.5591 15.7333ZM23.2811 17.1942C24.4525 17.3719 25.4502 17.8753 26.2843 18.7098C28.3855 20.8116 28.3855 24.1789 26.2843 26.2807C24.1832 28.3825 20.8168 28.3825 18.7157 26.2807C16.6145 24.1789 16.6145 20.8116 18.7157 18.7098C19.9306 17.4944 21.6022 16.9396 23.2811 17.1942Z" fill="#8F3B01"/>
</svg>
