<svg width="45" height="46" viewBox="0 0 45 46" fill="none" xmlns="http://www.w3.org/2000/svg">
<ellipse cx="22.5" cy="22.6913" rx="22.5" ry="22.6923" fill="white"/>
<path d="M10.5181 33.6216L11.9002 29.3909C12.105 28.764 11.7441 28.525 11.4395 27.9809C9.96524 25.3485 9.90382 22.1834 10.0574 20.9299C10.4259 15.665 13.6855 11.8852 16.0464 10.5881C20.8375 7.95565 26.3351 9.17784 28.485 10.118C33.2762 11.9983 35.3954 17.1691 35.8561 19.5194C36.5932 24.7842 34.3204 28.9209 33.0919 30.3311C27.5636 36.7241 20.039 35.1885 16.9677 33.6216C16.3021 33.282 15.8928 32.9948 15.5857 33.1515L11.4395 34.5617C10.4607 34.853 10.3646 34.2484 10.5181 33.6216Z" stroke="#8F3B01" stroke-width="1.5"/>
</svg>
