<svg width="45" height="46" viewBox="0 0 45 46" fill="none" xmlns="http://www.w3.org/2000/svg">
<ellipse cx="22.5" cy="22.6913" rx="22.5" ry="22.6923" fill="white"/>
<path fill-rule="evenodd" clip-rule="evenodd" d="M8.34904 15.0749C7.80291 15.2418 7.4575 15.5134 7.20318 15.9756C7.02387 16.3015 7.00563 16.3794 7.00293 16.8284L7 17.3225L7.71716 18.7082C9.22709 21.6254 10.7595 23.9116 12.5996 25.9922C13.2626 26.7419 14.8973 28.3148 15.6808 28.9569C16.8523 29.917 18.7084 31.2014 19.4489 31.5645C20.6423 32.1495 22.1563 32.1356 23.3618 31.5286C23.8899 31.2626 24.5936 30.591 24.8155 30.1412C25.0568 29.6519 25.0917 29.4109 25.0933 28.2234C25.0948 27.0429 25.1361 26.828 25.3948 26.652C25.5643 26.5367 25.9081 26.5316 26.0704 26.642C26.1374 26.6876 27.0327 27.7665 28.0598 29.0395C29.087 30.3125 30.0431 31.4529 30.1845 31.5737C30.6662 31.9856 30.7631 31.999 33.2476 31.999C35.79 31.999 35.8372 31.9917 36.3785 31.5112C36.7422 31.1884 36.9411 30.7975 36.9859 30.3175C37.0462 29.6711 37.0132 29.6156 34.7503 26.5669C33.6085 25.0287 32.6577 23.7058 32.6374 23.6271C32.6171 23.5484 32.6364 23.4006 32.6805 23.2984C32.7245 23.1963 33.6595 21.9023 34.7583 20.4227C35.8738 18.9206 36.8038 17.6125 36.8641 17.4607C37.0173 17.075 37.0062 16.4732 36.8393 16.1161C36.6402 15.6905 36.3951 15.4307 35.9924 15.2186L35.6231 15.0241H33.2476H30.8721L30.5804 15.1636C30.4199 15.2403 30.1823 15.4082 30.0525 15.5369C29.9216 15.6665 29.0358 17.0128 28.0643 18.5588C27.1007 20.0923 26.2358 21.4175 26.1424 21.5036C25.9436 21.6871 25.6123 21.7153 25.3948 21.5674C25.1064 21.3712 25.0947 21.2627 25.0947 18.7877C25.0947 16.6078 25.0881 16.4639 24.9755 16.1714C24.8169 15.7599 24.48 15.3999 24.0598 15.1931L23.7163 15.0241H20.7543H17.7923L17.4647 15.1734C16.7743 15.4878 16.3848 16.082 16.3862 16.8185C16.3868 17.1404 16.42 17.3159 16.5206 17.5305C16.6776 17.8653 17.057 18.2637 17.3671 18.4193L17.587 18.5297V19.7756C17.587 20.8592 17.5749 21.026 17.4942 21.0561C17.4432 21.0751 17.3909 21.0907 17.378 21.0907C17.3329 21.0907 16.4906 20.0327 16.199 19.6096C15.5929 18.7304 14.9775 17.5924 14.474 16.4197C14.1535 15.6734 13.776 15.2875 13.1713 15.0882C12.9314 15.0091 12.5774 14.9962 10.7371 14.9995C9.17964 15.0022 8.51872 15.0231 8.34904 15.0749ZM12.9979 16.378C13.091 16.4647 13.2292 16.6826 13.3048 16.8622C13.5509 17.4468 14.173 18.6926 14.4863 19.2284C14.8757 19.8943 15.6592 20.9946 16.137 21.5464C16.6242 22.1091 16.8984 22.2583 17.445 22.2584C17.8049 22.2584 17.8986 22.2354 18.1488 22.0855C18.4733 21.891 18.78 21.4563 18.8396 21.1059C18.8597 20.9879 18.8764 20.1193 18.8768 19.1757L18.8774 17.46L18.4522 17.4335C18.2183 17.4189 17.9691 17.3719 17.8985 17.329C17.5242 17.1019 17.5397 16.498 17.9249 16.2978C18.0443 16.2358 18.602 16.2204 20.725 16.2204C23.5566 16.2204 23.6 16.2244 23.7648 16.5029C23.8132 16.5846 23.8424 17.3467 23.863 19.0685C23.8912 21.4269 23.897 21.5278 24.0191 21.7842C24.6045 23.0145 26.2314 23.2656 27.1271 22.2642C27.2513 22.1253 28.1533 20.7456 29.1316 19.1982C30.1099 17.6509 30.9677 16.3478 31.0379 16.3026C31.1407 16.2362 31.5278 16.2169 33.0423 16.2024C34.0746 16.1926 35.0291 16.2002 35.1633 16.2194C35.5651 16.2769 35.8159 16.614 35.7189 16.9662C35.6984 17.0403 34.7843 18.3085 33.6875 19.7845C32.5907 21.2605 31.6328 22.5823 31.5588 22.7218C31.4833 22.8644 31.4094 23.1318 31.3901 23.3323C31.3238 24.0218 31.3357 24.042 33.6247 27.1255C34.7677 28.6653 35.719 29.9964 35.7387 30.0835C35.7859 30.2921 35.6983 30.5032 35.5022 30.6529C35.3468 30.7716 35.2974 30.7743 33.2528 30.7743C31.5176 30.7743 31.1414 30.7602 31.0403 30.6914C30.9732 30.6458 30.0769 29.566 29.0484 28.2919C28.0199 27.0178 27.0638 25.8774 26.9237 25.7576C26.2474 25.1794 25.1781 25.2078 24.4859 25.8222C23.949 26.2988 23.9013 26.4663 23.8625 28.0116C23.8252 29.4971 23.8079 29.5675 23.367 30.0252C22.8588 30.5529 22.0993 30.8072 21.1726 30.7603C20.4381 30.7229 20.1362 30.6076 19.209 30.01C15.4067 27.5596 12.4963 24.505 10.0804 20.4295C9.41824 19.3125 8.27337 17.1156 8.25578 16.9283C8.22246 16.5732 8.40001 16.2883 8.69081 16.2302C8.76091 16.2161 9.7206 16.2082 10.8234 16.2125L12.8285 16.2204L12.9979 16.378Z" fill="#8F3B01"/>
</svg>
