<svg width="88" height="108" viewBox="0 0 88 108" fill="none" xmlns="http://www.w3.org/2000/svg">
<path d="M12.136 11.808L1.336 9.93599V1.008H23.08C25.096 1.008 28.216 0.911994 32.44 0.719991C38.008 0.335996 43.048 0.143998 47.56 0.143998C57.544 0.143998 65.416 1.392 71.176 3.88799C77.032 6.288 81.16 9.792 83.56 14.4C86.056 18.912 87.304 24.672 87.304 31.68C87.304 43.776 83.512 53.184 75.928 59.904C68.44 66.624 58.024 69.984 44.68 69.984C39.4 69.984 35.608 69.84 33.304 69.552V97.92L52.6 99.36V108H0.76V99.36L12.136 97.92V11.808ZM33.16 60.336C35.368 60.816 39.112 61.056 44.392 61.056C50.824 61.056 55.96 58.848 59.8 54.432C63.736 49.92 65.704 42.48 65.704 32.112C65.704 24.048 63.928 18.192 60.376 14.544C56.92 10.8 51.592 8.928 44.392 8.928C41.704 8.928 38.92 9.12 36.04 9.504C34.696 9.696 33.736 9.79199 33.16 9.79199V60.336Z" fill="white" fill-opacity="0.7"/>
</svg>
