<svg width="98" height="111" viewBox="0 0 98 111" fill="none" xmlns="http://www.w3.org/2000/svg">
<path d="M47.62 110.584C31.972 110.584 20.26 105.688 12.484 95.896C4.708 86.104 0.82 72.76 0.82 55.864C0.82 44.824 2.836 35.128 6.868 26.776C10.996 18.424 16.756 11.992 24.148 7.47999C31.54 2.96799 40.036 0.711995 49.636 0.711995C65.476 0.711995 77.332 5.41599 85.204 14.824C93.172 24.136 97.156 37.192 97.156 53.992C97.156 65.128 95.044 75.016 90.82 83.656C86.692 92.2 80.884 98.824 73.396 103.528C65.908 108.232 57.316 110.584 47.62 110.584ZM49.06 9.49599C41.188 9.49599 35.044 13.384 30.628 21.16C26.212 28.936 24.004 40.456 24.004 55.72C24.004 70.792 26.116 82.264 30.34 90.136C34.66 97.912 40.804 101.8 48.772 101.8C56.548 101.8 62.644 97.72 67.06 89.56C71.476 81.304 73.684 69.448 73.684 53.992C73.684 39.016 71.572 27.88 67.348 20.584C63.124 13.192 57.028 9.49599 49.06 9.49599Z" fill="white" fill-opacity="0.7"/>
</svg>
