<svg width="134" height="137" viewBox="0 0 134 137" fill="none" xmlns="http://www.w3.org/2000/svg">
<mask id="mask0_515_1096" style="mask-type:alpha" maskUnits="userSpaceOnUse" x="0" y="0" width="134" height="137">
<mask id="path-1-inside-1_515_1096" fill="white">
<ellipse cx="67" cy="68.5" rx="67" ry="68.5"/>
</mask>
<path d="M172.5 68.5C172.5 67.9919 172.496 67.4843 172.489 66.9773L95.4968 68.0436C95.4989 68.1952 95.5 68.3473 95.5 68.5H172.5ZM172.405 63.9427C172.363 62.9261 172.307 61.9122 172.237 60.9013L95.422 66.2424C95.4427 66.5397 95.4593 66.839 95.4718 67.1403L172.405 63.9427ZM171.983 57.869C171.884 56.8522 171.77 55.8389 171.643 54.8295L95.2487 64.469C95.2857 64.762 95.3188 65.0569 95.3478 65.3539L171.983 57.869ZM171.218 51.8061C171.062 50.7951 170.891 49.7884 170.706 48.7861L94.9784 62.7237C95.0314 63.0118 95.0806 63.3018 95.1258 63.5937L171.218 51.8061ZM170.11 45.7826C169.896 44.7818 169.668 43.7859 169.427 42.7952L94.612 61.0078C94.6808 61.2906 94.7459 61.5754 94.8071 61.862L170.11 45.7826ZM168.659 39.8239C168.389 38.8368 168.105 37.8554 167.807 36.8797L94.1507 59.3229C94.2352 59.6002 94.3159 59.8794 94.3929 60.1605L168.659 39.8239ZM166.87 33.9526C166.543 32.9813 166.203 32.0162 165.85 31.0575L93.5951 57.6703C93.6952 57.9421 93.7916 58.2158 93.8843 58.4915L166.87 33.9526ZM164.747 28.1904C164.365 27.2384 163.97 26.2933 163.562 25.3553L92.9472 56.0552C93.0627 56.3207 93.1745 56.5883 93.2826 56.8579L164.747 28.1904ZM162.298 22.5574C161.862 21.6283 161.414 20.7066 160.952 19.7925L92.2088 54.4815C92.3392 54.7399 92.4662 55.0006 92.5895 55.2635L162.298 22.5574ZM159.529 17.0701C159.041 16.1679 158.541 15.2737 158.028 14.3877L91.3823 52.9538C91.5271 53.2041 91.6686 53.4568 91.8065 53.7118L159.529 17.0701ZM156.45 11.7493C155.912 10.877 155.361 10.0132 154.798 9.15809L90.4706 51.4776C90.6293 51.7188 90.7847 51.9625 90.9368 52.2088L156.45 11.7493ZM153.071 6.6125C152.483 5.77215 151.883 4.94076 151.272 4.11856L89.477 50.0577C89.649 50.2891 89.8179 50.5232 89.9836 50.7599L153.071 6.6125ZM149.401 1.67567C148.765 0.869808 148.118 0.0734009 147.459 -0.713304L88.4062 48.7005C88.5907 48.921 88.7724 49.1445 88.951 49.3709L149.401 1.67567ZM145.45 -3.04581C144.768 -3.81453 144.075 -4.57331 143.372 -5.32188L87.2631 47.4116C87.4593 47.6204 87.6528 47.8323 87.8435 48.0473L145.45 -3.04581ZM141.228 -7.53764C140.502 -8.2664 139.766 -8.98471 139.02 -9.69233L86.0531 46.1965C86.2599 46.3925 86.4643 46.5919 86.6661 46.7945L141.228 -7.53764ZM136.748 -11.7837C135.98 -12.4701 135.202 -13.1456 134.414 -13.8099L84.782 45.0599C84.9986 45.2425 85.2128 45.4286 85.4248 45.6181L136.748 -11.7837ZM132.02 -15.7692C131.212 -16.4109 130.395 -17.0412 129.568 -17.6597L83.4559 44.0065C83.6812 44.1749 83.9044 44.347 84.1254 44.5226L132.02 -15.7692ZM127.058 -19.4795C126.213 -20.0739 125.358 -20.6563 124.494 -21.2265L82.0811 43.0399C82.314 43.1936 82.5451 43.351 82.7742 43.5121L127.058 -19.4795ZM121.875 -22.8995C120.995 -23.4441 120.105 -23.9762 119.207 -24.4956L80.6633 42.1631C80.9029 42.3017 81.1409 42.444 81.377 42.59L121.875 -22.8995ZM116.489 -26.014C115.575 -26.5066 114.653 -26.9863 113.723 -27.4526L79.208 41.3783C79.4536 41.5014 79.6976 41.6284 79.9401 41.7591L116.489 -26.014ZM110.915 -28.809C109.971 -29.2473 109.02 -29.6721 108.062 -30.0831L77.7201 40.6869C77.9709 40.7944 78.2203 40.9058 78.4682 41.021L110.915 -28.809ZM105.172 -31.271C104.203 -31.6524 103.227 -32.0198 102.245 -32.373L76.204 40.09C76.4593 40.1817 76.7132 40.2773 76.9656 40.3767L105.172 -31.271ZM99.2824 -33.3874C98.2921 -33.71 97.2954 -34.0182 96.2924 -34.3117L74.6619 39.5877C74.9212 39.6636 75.1792 39.7433 75.4357 39.8269L99.2824 -33.3874ZM93.2705 -35.1469C92.2627 -35.4092 91.2492 -35.6567 90.2302 -35.8893L73.0954 39.18C73.3587 39.2401 73.6206 39.3041 73.8809 39.3718L93.2705 -35.1469ZM87.166 -36.5402C86.1437 -36.7413 85.1165 -36.9274 84.0846 -37.0983L71.5048 38.8671C71.7725 38.9115 72.0386 38.9597 72.3031 39.0117L87.166 -36.5402ZM80.993 -37.5627C79.9607 -37.7019 78.9243 -37.8259 77.884 -37.9345L69.8894 38.6494C70.1618 38.6778 70.4324 38.7102 70.7013 38.7465L80.993 -37.5627ZM74.7808 -38.2117C73.7458 -38.2886 72.7076 -38.3503 71.6663 -38.3965L68.2497 38.5276C68.5264 38.5399 68.8013 38.5563 69.0741 38.5766L74.7808 -38.2117ZM68.5592 -38.4885C68.0401 -38.4962 67.5203 -38.5 67 -38.5V38.5C67.1404 38.5 67.2803 38.501 67.4197 38.5031L68.5592 -38.4885ZM67 -38.5C66.4797 -38.5 65.9599 -38.4962 65.4407 -38.4885L66.5803 38.5031C66.7196 38.501 66.8596 38.5 67 38.5V-38.5ZM62.3336 -38.3965C61.2924 -38.3503 60.2542 -38.2886 59.2192 -38.2117L64.9259 38.5766C65.1987 38.5563 65.4735 38.5399 65.7503 38.5276L62.3336 -38.3965ZM56.116 -37.9345C55.0757 -37.8259 54.0393 -37.7019 53.0069 -37.5626L63.2987 38.7465C63.5676 38.7102 63.8382 38.6778 64.1106 38.6494L56.116 -37.9345ZM49.9154 -37.0983C48.8835 -36.9274 47.8563 -36.7413 46.834 -36.5402L61.6969 39.0117C61.9614 38.9597 62.2275 38.9115 62.4952 38.8671L49.9154 -37.0983ZM43.7697 -35.8893C42.7508 -35.6567 41.7372 -35.4091 40.7295 -35.1469L60.1191 39.3718C60.3794 39.3041 60.6413 39.2401 60.9046 39.18L43.7697 -35.8893ZM37.7075 -34.3117C36.7046 -34.0181 35.7078 -33.71 34.7176 -33.3874L58.5643 39.8269C58.8208 39.7433 59.0787 39.6636 59.3381 39.5877L37.7075 -34.3117ZM31.7555 -32.373C30.7726 -32.0198 29.7966 -31.6524 28.8279 -31.271L57.0344 40.3767C57.2868 40.2773 57.5407 40.1817 57.796 40.09L31.7555 -32.373ZM25.9383 -30.0831C24.9796 -29.6721 24.0286 -29.2473 23.0853 -28.809L55.5318 41.021C55.7797 40.9058 56.0291 40.7944 56.2799 40.6869L25.9383 -30.0831ZM20.2767 -27.4526C19.3466 -26.9863 18.4247 -26.5066 17.5112 -26.014L54.0599 41.7591C54.3024 41.6284 54.5464 41.5014 54.792 41.3783L20.2767 -27.4526ZM14.793 -24.4956C13.8948 -23.9763 13.0053 -23.4441 12.1246 -22.8995L52.623 42.59C52.8591 42.444 53.0971 42.3017 53.3367 42.1631L14.793 -24.4956ZM9.5063 -21.2265C8.64232 -20.6563 7.78748 -20.0739 6.94201 -19.4795L51.2258 43.5121C51.4549 43.351 51.686 43.1936 51.9189 43.0399L9.5063 -21.2265ZM4.43247 -17.6597C3.60532 -17.0412 2.78775 -16.411 1.97998 -15.7693L49.8746 44.5226C50.0956 44.347 50.3188 44.1749 50.5441 44.0065L4.43247 -17.6597ZM-0.413998 -13.8099C-1.20191 -13.1457 -1.97984 -12.4702 -2.74756 -11.7838L48.5753 45.6181C48.7872 45.4286 49.0015 45.2425 49.218 45.0599L-0.413998 -13.8099ZM-5.01946 -9.69236C-5.76612 -8.98475 -6.5024 -8.26643 -7.22809 -7.53767L47.3339 46.7945C47.5357 46.5919 47.7401 46.3925 47.947 46.1964L-5.01946 -9.69236ZM-9.37166 -5.32192C-10.0752 -4.57335 -10.768 -3.81457 -11.4498 -3.04584L46.1565 48.0473C46.3472 47.8323 46.5407 47.6204 46.7369 47.4116L-9.37166 -5.32192ZM-13.4593 -0.713341C-14.1176 0.0733621 -14.7648 0.869768 -15.4006 1.67563L45.049 49.3709C45.2276 49.1445 45.4093 48.921 45.5938 48.7005L-13.4593 -0.713341ZM-17.2718 4.11853C-17.883 4.94072 -18.4828 5.77211 -19.0708 6.61246L44.0164 50.7599C44.1821 50.5231 44.351 50.289 44.523 50.0577L-17.2718 4.11853ZM-20.7983 9.15806C-21.3609 10.0132 -21.9117 10.877 -22.4503 11.7493L43.0632 52.2088C43.2153 51.9625 43.3707 51.7188 43.5294 51.4776L-20.7983 9.15806ZM-24.028 14.3877C-24.5407 15.2737 -25.0413 16.1679 -25.5294 17.0701L42.1935 53.7118C42.3314 53.4568 42.4729 53.2041 42.6177 52.9538L-24.028 14.3877ZM-26.9524 19.7925C-27.4136 20.7066 -27.8623 21.6283 -28.2983 22.5574L41.4105 55.2635C41.5338 55.0006 41.6608 54.7399 41.7912 54.4815L-26.9524 19.7925ZM-29.5625 25.3553C-29.9703 26.2933 -30.3653 27.2384 -30.7471 28.1904L40.7174 56.8579C40.8255 56.5883 40.9373 56.3207 41.0528 56.0552L-29.5625 25.3553ZM-31.8499 31.0575C-32.203 32.0162 -32.543 32.9813 -32.8696 33.9526L40.1157 58.4915C40.2084 58.2158 40.3048 57.9421 40.4049 57.6703L-31.8499 31.0575ZM-33.8074 36.8797C-34.1046 37.8554 -34.3885 38.8369 -34.6588 39.8239L39.6071 60.1605C39.6841 59.8794 39.7648 59.6002 39.8493 59.3229L-33.8074 36.8797ZM-35.4271 42.7953C-35.6683 43.786 -35.8958 44.7818 -36.1095 45.7826L39.1929 61.862C39.2541 61.5754 39.3191 61.2906 39.388 61.0078L-35.4271 42.7953ZM-36.7065 48.7861C-36.8909 49.7884 -37.0616 50.7951 -37.2182 51.8061L38.8742 63.5937C38.9194 63.3018 38.9686 63.0118 39.0216 62.7237L-36.7065 48.7861ZM-37.643 54.8295C-37.7704 55.839 -37.8838 56.8522 -37.9831 57.869L38.6522 65.3539C38.6812 65.0569 38.7143 64.762 38.7512 64.469L-37.643 54.8295ZM-38.2365 60.9014C-38.3068 61.9122 -38.3632 62.9261 -38.4054 63.9428L38.5282 67.1403C38.5407 66.839 38.5573 66.5397 38.578 66.2425L-38.2365 60.9014ZM-38.4895 66.9773C-38.4965 67.4843 -38.5 67.9919 -38.5 68.5H38.5C38.5 68.3473 38.5011 68.1952 38.5032 68.0436L-38.4895 66.9773ZM-38.5 68.5C-38.5 69.0081 -38.4965 69.5157 -38.4895 70.0227L38.5032 68.9564C38.5011 68.8048 38.5 68.6527 38.5 68.5H-38.5ZM-38.4054 73.0573C-38.3632 74.0739 -38.3068 75.0878 -38.2365 76.0987L38.578 70.7576C38.5573 70.4603 38.5407 70.161 38.5282 69.8597L-38.4054 73.0573ZM-37.9831 79.1311C-37.8838 80.1478 -37.7704 81.1611 -37.643 82.1705L38.7513 72.531C38.7143 72.238 38.6812 71.9431 38.6522 71.6461L-37.9831 79.1311ZM-37.2182 85.1939C-37.0616 86.2049 -36.8909 87.2116 -36.7065 88.2139L39.0216 74.2763C38.9686 73.9882 38.9194 73.6982 38.8742 73.4063L-37.2182 85.1939ZM-36.1095 91.2174C-35.8958 92.2182 -35.6683 93.2141 -35.4271 94.2048L39.388 75.9922C39.3191 75.7094 39.2541 75.4246 39.1929 75.138L-36.1095 91.2174ZM-34.6588 97.1761C-34.3885 98.1632 -34.1046 99.1446 -33.8073 100.12L39.8493 77.6771C39.7648 77.3998 39.6841 77.1206 39.6071 76.8395L-34.6588 97.1761ZM-32.8695 103.047C-32.543 104.019 -32.203 104.984 -31.8499 105.942L40.4049 79.3297C40.3048 79.0579 40.2084 78.7842 40.1157 78.5085L-32.8695 103.047ZM-30.7471 108.81C-30.3652 109.762 -29.9703 110.707 -29.5625 111.645L41.0528 80.9448C40.9373 80.6793 40.8255 80.4117 40.7174 80.1421L-30.7471 108.81ZM-28.2983 114.443C-27.8623 115.372 -27.4136 116.293 -26.9524 117.207L41.7912 82.5185C41.6608 82.2601 41.5338 81.9994 41.4105 81.7365L-28.2983 114.443ZM-25.5294 119.93C-25.0413 120.832 -24.5407 121.726 -24.028 122.612L42.6177 84.0462C42.4729 83.7959 42.3314 83.5432 42.1935 83.2882L-25.5294 119.93ZM-22.4504 125.251C-21.9117 126.123 -21.3609 126.987 -20.7984 127.842L43.5294 85.5224C43.3707 85.2812 43.2153 85.0375 43.0632 84.7912L-22.4504 125.251ZM-19.0709 130.387C-18.4828 131.228 -17.883 132.059 -17.2718 132.881L44.523 86.9423C44.351 86.7109 44.1821 86.4769 44.0164 86.2401L-19.0709 130.387ZM-15.4007 135.324C-14.7648 136.13 -14.1177 136.927 -13.4594 137.713L45.5938 88.2995C45.4093 88.079 45.2276 87.8555 45.049 87.6291L-15.4007 135.324ZM-11.4498 140.046C-10.768 140.815 -10.0752 141.573 -9.37169 142.322L46.7369 89.5884C46.5407 89.3796 46.3472 89.1677 46.1565 88.9527L-11.4498 140.046ZM-7.22812 144.538C-6.50244 145.266 -5.76615 145.985 -5.0195 146.692L47.9469 90.8035C47.7401 90.6075 47.5357 90.4081 47.3339 90.2055L-7.22812 144.538ZM-2.7476 148.784C-1.97988 149.47 -1.20195 150.146 -0.414039 150.81L49.218 91.9401C49.0014 91.7575 48.7872 91.5714 48.5752 91.3819L-2.7476 148.784ZM1.97994 152.769C2.78771 153.411 3.60528 154.041 4.43243 154.66L50.5441 92.9935C50.3188 92.8251 50.0956 92.653 49.8746 92.4774L1.97994 152.769ZM6.94198 156.479C7.78746 157.074 8.64229 157.656 9.50627 158.226L51.9189 93.9601C51.686 93.8064 51.4549 93.649 51.2258 93.4879L6.94198 156.479ZM12.1246 159.9C13.0053 160.444 13.8948 160.976 14.793 161.496L53.3367 94.8369C53.0971 94.6983 52.8591 94.556 52.623 94.41L12.1246 159.9ZM17.5112 163.014C18.4247 163.507 19.3466 163.986 20.2767 164.453L54.792 95.6217C54.5464 95.4986 54.3024 95.3716 54.0599 95.2409L17.5112 163.014ZM23.0853 165.809C24.0286 166.247 24.9796 166.672 25.9383 167.083L56.2799 96.3131C56.0291 96.2056 55.7797 96.0942 55.5318 95.979L23.0853 165.809ZM28.8279 168.271C29.7966 168.652 30.7726 169.02 31.7555 169.373L57.796 96.91C57.5407 96.8183 57.2868 96.7227 57.0344 96.6233L28.8279 168.271ZM34.7176 170.387C35.7079 170.71 36.7046 171.018 37.7076 171.312L59.3381 97.4123C59.0788 97.3364 58.8208 97.2567 58.5643 97.1731L34.7176 170.387ZM40.7295 172.147C41.7373 172.409 42.7508 172.657 43.7698 172.889L60.9046 97.82C60.6413 97.7599 60.3794 97.6959 60.1191 97.6282L40.7295 172.147ZM46.834 173.54C47.8563 173.741 48.8835 173.927 49.9154 174.098L62.4952 98.1329C62.2275 98.0885 61.9614 98.0403 61.6969 97.9883L46.834 173.54ZM53.007 174.563C54.0393 174.702 55.0757 174.826 56.116 174.934L64.1106 98.3506C63.8382 98.3222 63.5676 98.2898 63.2987 98.2535L53.007 174.563ZM59.2192 175.212C60.2542 175.289 61.2924 175.35 62.3337 175.397L65.7503 98.4724C65.4736 98.4601 65.1987 98.4437 64.9259 98.4234L59.2192 175.212ZM65.4408 175.488C65.9599 175.496 66.4797 175.5 67 175.5V98.5C66.8596 98.5 66.7197 98.499 66.5803 98.4969L65.4408 175.488ZM67 175.5C67.5203 175.5 68.0401 175.496 68.5593 175.488L67.4197 98.4969C67.2804 98.499 67.1404 98.5 67 98.5V175.5ZM71.6664 175.397C72.7076 175.35 73.7458 175.289 74.7808 175.212L69.0741 98.4234C68.8013 98.4437 68.5265 98.4601 68.2497 98.4724L71.6664 175.397ZM77.884 174.934C78.9243 174.826 79.9607 174.702 80.9931 174.563L70.7013 98.2535C70.4324 98.2898 70.1618 98.3222 69.8894 98.3506L77.884 174.934ZM84.0846 174.098C85.1165 173.927 86.1437 173.741 87.166 173.54L72.3031 97.9883C72.0386 98.0403 71.7725 98.0885 71.5048 98.1329L84.0846 174.098ZM90.2303 172.889C91.2492 172.657 92.2628 172.409 93.2705 172.147L73.8809 97.6282C73.6206 97.6959 73.3587 97.7599 73.0954 97.82L90.2303 172.889ZM96.2925 171.312C97.2954 171.018 98.2922 170.71 99.2824 170.387L75.4357 97.1731C75.1792 97.2567 74.9213 97.3364 74.6619 97.4123L96.2925 171.312ZM102.245 169.373C103.227 169.02 104.203 168.652 105.172 168.271L76.9656 96.6233C76.7132 96.7227 76.4593 96.8183 76.204 96.91L102.245 169.373ZM108.062 167.083C109.02 166.672 109.971 166.247 110.915 165.809L78.4682 95.979C78.2203 96.0942 77.9709 96.2056 77.7201 96.3131L108.062 167.083ZM113.723 164.453C114.653 163.986 115.575 163.507 116.489 163.014L79.9401 95.2409C79.6976 95.3716 79.4536 95.4986 79.208 95.6217L113.723 164.453ZM119.207 161.496C120.105 160.976 120.995 160.444 121.875 159.9L81.377 94.41C81.1409 94.556 80.9029 94.6983 80.6633 94.8369L119.207 161.496ZM124.494 158.226C125.358 157.656 126.213 157.074 127.058 156.48L82.7742 93.4879C82.5451 93.649 82.314 93.8064 82.0811 93.9601L124.494 158.226ZM129.568 154.66C130.395 154.041 131.212 153.411 132.02 152.769L84.1254 92.4774C83.9044 92.653 83.6812 92.8251 83.4559 92.9935L129.568 154.66ZM134.414 150.81C135.202 150.146 135.98 149.47 136.748 148.784L85.4247 91.382C85.2128 91.5714 84.9986 91.7575 84.782 91.9401L134.414 150.81ZM139.019 146.692C139.766 145.985 140.502 145.266 141.228 144.538L86.6661 90.2055C86.4643 90.4081 86.2599 90.6075 86.053 90.8036L139.019 146.692ZM143.372 142.322C144.075 141.573 144.768 140.815 145.45 140.046L87.8435 88.9527C87.6528 89.1677 87.4593 89.3796 87.2631 89.5884L143.372 142.322ZM147.459 137.713C148.118 136.927 148.765 136.13 149.401 135.324L88.951 87.6291C88.7724 87.8555 88.5907 88.079 88.4062 88.2995L147.459 137.713ZM151.272 132.881C151.883 132.059 152.483 131.228 153.071 130.388L89.9836 86.2401C89.8179 86.4769 89.649 86.711 89.477 86.9423L151.272 132.881ZM154.798 127.842C155.361 126.987 155.912 126.123 156.45 125.251L90.9368 84.7912C90.7847 85.0375 90.6293 85.2812 90.4706 85.5224L154.798 127.842ZM158.028 122.612C158.541 121.726 159.041 120.832 159.529 119.93L91.8065 83.2882C91.6686 83.5432 91.5271 83.7959 91.3823 84.0462L158.028 122.612ZM160.952 117.207C161.414 116.293 161.862 115.372 162.298 114.443L92.5895 81.7365C92.4662 81.9994 92.3392 82.2601 92.2088 82.5185L160.952 117.207ZM163.562 111.645C163.97 110.707 164.365 109.762 164.747 108.81L93.2826 80.1421C93.1745 80.4117 93.0627 80.6793 92.9472 80.9448L163.562 111.645ZM165.85 105.942C166.203 104.984 166.543 104.019 166.87 103.047L93.8843 78.5085C93.7916 78.7841 93.6952 79.0579 93.5951 79.3297L165.85 105.942ZM167.807 100.12C168.105 99.1446 168.389 98.1631 168.659 97.1761L94.3929 76.8395C94.3159 77.1206 94.2352 77.3998 94.1507 77.6771L167.807 100.12ZM169.427 94.2047C169.668 93.214 169.896 92.2182 170.11 91.2174L94.8071 75.138C94.7459 75.4246 94.6809 75.7094 94.612 75.9922L169.427 94.2047ZM170.706 88.2139C170.891 87.2116 171.062 86.2049 171.218 85.1939L95.1258 73.4063C95.0806 73.6982 95.0314 73.9882 94.9784 74.2763L170.706 88.2139ZM171.643 82.1705C171.77 81.161 171.884 80.1478 171.983 79.131L95.3478 71.6461C95.3188 71.9431 95.2857 72.238 95.2487 72.531L171.643 82.1705ZM172.237 76.0986C172.307 75.0878 172.363 74.0739 172.405 73.0572L95.4718 69.8597C95.4593 70.161 95.4427 70.4603 95.422 70.7575L172.237 76.0986ZM172.489 70.0227C172.496 69.5157 172.5 69.0081 172.5 68.5H95.5C95.5 68.6527 95.4989 68.8048 95.4968 68.9564L172.489 70.0227ZM211 68.5C211 67.8141 210.995 67.1288 210.986 66.4441L57.0005 68.5768C57.0002 68.5507 57 68.5251 57 68.5H211ZM210.872 62.344C210.815 60.9696 210.739 59.5984 210.644 58.2307L57.0147 68.913C57.0106 68.8534 57.0074 68.7954 57.0051 68.7391L210.872 62.344ZM210.301 54.1265C210.166 52.7498 210.013 51.3774 209.84 50.0097L57.0516 69.2887C57.0434 69.2235 57.0362 69.1593 57.0301 69.0963L210.301 54.1265ZM209.264 45.9122C209.052 44.5417 208.821 43.1767 208.571 41.8173L57.1143 69.6925C57.1016 69.6235 57.0901 69.5552 57.0796 69.4875L209.264 45.9122ZM207.761 37.7429C207.471 36.385 207.162 35.0336 206.835 33.689L57.2044 70.114C57.1871 70.043 57.171 69.9721 57.1559 69.9016L207.761 37.7429ZM205.792 29.6555C205.425 28.3155 205.039 26.983 204.636 25.6581L57.3223 70.5444C57.3004 70.4726 57.2797 70.4007 57.26 70.3288L205.792 29.6555ZM203.362 21.6832C202.919 20.364 202.457 19.0532 201.977 17.7511L57.4677 70.9768C57.4413 70.9051 57.416 70.8331 57.3917 70.761L203.362 21.6832ZM200.479 13.8566C199.961 12.5635 199.424 11.2796 198.87 10.0053L57.6396 71.4052C57.6088 71.3344 57.5791 71.2632 57.5504 71.1917L200.479 13.8566ZM197.153 6.20437C196.56 4.94213 195.951 3.68991 195.324 2.44805L57.837 71.8259C57.8021 71.7566 57.7681 71.6868 57.7351 71.6165L197.153 6.20437ZM193.391 -1.25077C192.728 -2.4765 192.048 -3.69147 191.351 -4.89538L58.0594 72.2369C58.0203 72.1694 57.9822 72.1013 57.9451 72.0327L193.391 -1.25077ZM189.207 -8.48044C188.475 -9.66571 187.727 -10.8396 186.962 -12.0016L58.3067 72.6373C58.2634 72.5715 58.2212 72.5053 58.18 72.4385L189.207 -8.48044ZM184.615 -15.4612C183.815 -16.6033 183 -17.7334 182.169 -18.851L58.5796 73.0273C58.532 72.9632 58.4854 72.8987 58.44 72.8336L184.615 -15.4612ZM179.626 -22.1719C178.761 -23.2675 177.881 -24.3504 176.986 -25.4202L58.8796 73.4074C58.8273 73.3448 58.7761 73.2819 58.7261 73.2185L179.626 -22.1719ZM174.253 -28.5924C173.326 -29.638 172.383 -30.6702 171.426 -31.6886L59.2087 73.7784C59.1513 73.7173 59.0952 73.6558 59.0403 73.5939L174.253 -28.5924ZM168.509 -34.7037C167.521 -35.6956 166.519 -36.6733 165.503 -37.6367L59.5698 74.1409C59.5068 74.0812 59.4453 74.0211 59.3851 73.9606L168.509 -34.7037ZM162.409 -40.4846C161.363 -41.4195 160.304 -42.3397 159.23 -43.2448L59.966 74.4949C59.8969 74.4366 59.8293 74.378 59.7633 74.319L162.409 -40.4846ZM155.967 -45.9152C154.866 -46.7899 153.751 -47.6492 152.623 -48.4927L60.4001 74.8396C60.3244 74.783 60.2504 74.7259 60.1781 74.6685L155.967 -45.9152ZM149.2 -50.9753C148.046 -51.7863 146.88 -52.5812 145.7 -53.3596L60.8748 75.1731C60.7921 75.1186 60.7113 75.0635 60.6323 75.0079L149.2 -50.9753ZM142.125 -55.6443C140.922 -56.3882 139.706 -57.1152 138.479 -57.825L61.3915 75.4925C61.3018 75.4406 61.2139 75.388 61.1279 75.3348L142.125 -55.6443ZM134.763 -59.9005C133.514 -60.5741 132.253 -61.2301 130.981 -61.8681L61.9503 75.7937C61.8537 75.7452 61.7588 75.6958 61.6657 75.6456L134.763 -59.9005ZM127.138 -63.724C125.847 -64.3238 124.545 -64.9053 123.233 -65.4681L62.5493 76.0719C62.4462 76.0276 62.3447 75.9823 62.2449 75.9359L127.138 -63.724ZM119.275 -67.0949C117.948 -67.6172 116.611 -68.1206 115.265 -68.6046L63.1837 76.3215C63.0752 76.2825 62.9681 76.2422 62.8624 76.2005L119.275 -67.0949ZM111.206 -69.9946C109.849 -70.4366 108.482 -70.859 107.108 -71.2614L63.8466 76.5374C63.7342 76.5044 63.6227 76.47 63.5124 76.434L111.206 -69.9946ZM102.965 -72.4063C101.584 -72.7658 100.194 -73.1051 98.7976 -73.4239L64.528 76.7147C64.4135 76.6885 64.2995 76.6607 64.1861 76.6312L102.965 -72.4063ZM94.5974 -74.3162C93.1962 -74.5918 91.7885 -74.8469 90.3745 -75.081L65.215 76.8499C65.1005 76.8309 64.9861 76.8102 64.8717 76.7877L94.5974 -74.3162ZM86.1389 -75.7172C84.7249 -75.9079 83.3055 -76.0777 81.8813 -76.2264L65.8921 76.9413C65.7805 76.9296 65.6683 76.9162 65.5554 76.901L86.1389 -75.7172ZM77.6341 -76.6058C76.218 -76.711 74.7981 -76.7954 73.3747 -76.8586L66.5413 76.9897C66.4359 76.985 66.329 76.9787 66.2208 76.9707L77.6341 -76.6058ZM69.129 -76.9843C68.4199 -76.9947 67.7103 -77 67 -77V77C66.9505 77 66.9005 76.9996 66.85 76.9989L69.129 -76.9843ZM67 -77C66.2897 -77 65.58 -76.9947 64.871 -76.9842L67.15 76.9989C67.0995 76.9996 67.0495 77 67 77V-77ZM60.6252 -76.8586C59.2018 -76.7954 57.7819 -76.711 56.3658 -76.6058L67.7792 76.9707C67.671 76.9787 67.5641 76.985 67.4587 76.9897L60.6252 -76.8586ZM52.1186 -76.2264C50.6944 -76.0777 49.2751 -75.9079 47.861 -75.7172L68.4446 76.901C68.3317 76.9162 68.2195 76.9296 68.1079 76.9413L52.1186 -76.2264ZM43.6255 -75.081C42.2115 -74.8469 40.8037 -74.5918 39.4026 -74.3162L69.1283 76.7877C69.0139 76.8102 68.8995 76.8309 68.7851 76.8499L43.6255 -75.081ZM35.2023 -73.4239C33.8055 -73.1051 32.4161 -72.7658 31.0347 -72.4063L69.8139 76.6312C69.7005 76.6607 69.5865 76.6885 69.472 76.7147L35.2023 -73.4239ZM26.8922 -71.2614C25.5175 -70.859 24.1514 -70.4366 22.7943 -69.9946L70.4876 76.434C70.3773 76.47 70.2658 76.5044 70.1534 76.5374L26.8922 -71.2614ZM18.7352 -68.6046C17.3885 -68.1206 16.0515 -67.6172 14.7246 -67.0948L71.1376 76.2005C71.0319 76.2422 70.9248 76.2825 70.8163 76.3215L18.7352 -68.6046ZM10.7675 -65.468C9.4549 -64.9053 8.15298 -64.3238 6.86206 -63.724L71.7551 75.9359C71.6553 75.9823 71.5538 76.0276 71.4507 76.0719L10.7675 -65.468ZM3.01901 -61.8681C1.74673 -61.2301 0.485906 -60.5741 -0.763143 -59.9005L72.3343 75.6456C72.2412 75.6958 72.1463 75.7452 72.0497 75.7937L3.01901 -61.8681ZM-4.47878 -57.825C-5.70629 -57.1152 -6.92165 -56.3882 -8.12455 -55.6443L72.8721 75.3348C72.7861 75.388 72.6982 75.4406 72.6085 75.4925L-4.47878 -57.825ZM-11.7 -53.3597C-12.8795 -52.5813 -14.0462 -51.7863 -15.1999 -50.9753L73.3677 75.0079C73.2887 75.0635 73.2078 75.1186 73.1252 75.1731L-11.7 -53.3597ZM-18.6233 -48.4928C-19.7514 -47.6492 -20.8662 -46.7899 -21.9673 -45.9152L73.8219 74.6685C73.7496 74.7259 73.6756 74.783 73.5999 74.8396L-18.6233 -48.4928ZM-25.23 -43.2449C-26.3036 -42.3398 -27.3633 -41.4196 -28.409 -40.4847L74.2367 74.319C74.1707 74.378 74.1031 74.4366 74.034 74.4949L-25.23 -43.2449ZM-31.5027 -37.6368C-32.5192 -36.6734 -33.5214 -35.6956 -34.5091 -34.7038L74.6149 73.9606C74.5547 74.0211 74.4931 74.0812 74.4302 74.1409L-31.5027 -37.6368ZM-37.426 -31.6887C-38.3832 -30.6702 -39.3256 -29.638 -40.253 -28.5924L74.9597 73.5939C74.9048 73.6558 74.8487 73.7173 74.7913 73.7784L-37.426 -31.6887ZM-42.9859 -25.4202C-43.8811 -24.3505 -44.761 -23.2676 -45.6255 -22.172L75.2739 73.2185C75.2239 73.2819 75.1727 73.3448 75.1204 73.4074L-42.9859 -25.4202ZM-48.1692 -18.8511C-49 -17.7334 -49.8152 -16.6034 -50.6145 -15.4613L75.56 72.8336C75.5145 72.8987 75.468 72.9632 75.4204 73.0273L-48.1692 -18.8511ZM-52.9622 -12.0017C-53.7267 -10.8396 -54.4751 -9.66575 -55.2071 -8.48048L75.82 72.4385C75.7788 72.5053 75.7365 72.5715 75.6933 72.6373L-52.9622 -12.0017ZM-57.3508 -4.89541C-58.0475 -3.6915 -58.7276 -2.47652 -59.3908 -1.25079L76.0549 72.0327C76.0178 72.1013 75.9797 72.1694 75.9406 72.2369L-57.3508 -4.89541ZM-61.3242 2.44803C-61.9508 3.6899 -62.5604 4.94212 -63.1526 6.20436L76.2649 71.6165C76.2319 71.6868 76.1979 71.7566 76.163 71.8259L-61.3242 2.44803ZM-64.8701 10.0053C-65.4241 11.2796 -65.9606 12.5635 -66.4794 13.8566L76.4496 71.1917C76.4209 71.2632 76.3912 71.3344 76.3604 71.4052L-64.8701 10.0053ZM-67.9773 17.7511C-68.4569 19.0532 -68.9186 20.364 -69.3622 21.6832L76.6083 70.761C76.584 70.8331 76.5587 70.9051 76.5323 70.9768L-67.9773 17.7511ZM-70.6357 25.6582C-71.0394 26.983 -71.4248 28.3156 -71.7917 29.6556L76.74 70.3288C76.7203 70.4007 76.6996 70.4726 76.6777 70.5444L-70.6357 25.6582ZM-72.8347 33.689C-73.162 35.0336 -73.4708 36.3851 -73.7607 37.7429L76.8441 69.9016C76.829 69.9721 76.8129 70.0429 76.7956 70.114L-72.8347 33.689ZM-74.5705 41.8174C-74.8207 43.1767 -75.0521 44.5418 -75.2644 45.9123L76.9204 69.4875C76.9099 69.5552 76.8984 69.6235 76.8857 69.6925L-74.5705 41.8174ZM-75.8401 50.0098C-76.0127 51.3775 -76.1663 52.7499 -76.3008 54.1266L76.9699 69.0963C76.9638 69.1593 76.9566 69.2235 76.9484 69.2887L-75.8401 50.0098ZM-76.6438 58.2308C-76.7389 59.5985 -76.8151 60.9697 -76.8722 62.344L76.9949 68.7391C76.9926 68.7954 76.9894 68.8534 76.9853 68.913L-76.6438 58.2308ZM-76.9858 66.4442C-76.9952 67.1288 -77 67.8141 -77 68.5H77C77 68.5251 76.9998 68.5507 76.9995 68.5768L-76.9858 66.4442ZM-77 68.5C-77 69.1859 -76.9952 69.8712 -76.9858 70.5559L76.9995 68.4232C76.9998 68.4493 77 68.4749 77 68.5H-77ZM-76.8722 74.656C-76.8151 76.0304 -76.7389 77.4016 -76.6438 78.7693L76.9853 68.087C76.9894 68.1466 76.9926 68.2046 76.9949 68.2609L-76.8722 74.656ZM-76.3008 82.8735C-76.1663 84.2502 -76.0127 85.6226 -75.8401 86.9903L76.9484 67.7113C76.9566 67.7765 76.9638 67.8407 76.9699 67.9037L-76.3008 82.8735ZM-75.2644 91.0878C-75.052 92.4583 -74.8207 93.8233 -74.5705 95.1827L76.8857 67.3075C76.8984 67.3765 76.9099 67.4448 76.9204 67.5125L-75.2644 91.0878ZM-73.7607 99.2571C-73.4708 100.615 -73.162 101.966 -72.8347 103.311L76.7956 66.886C76.8129 66.957 76.829 67.0279 76.8441 67.0984L-73.7607 99.2571ZM-71.7917 107.344C-71.4248 108.684 -71.0394 110.017 -70.6357 111.342L76.6777 66.4556C76.6996 66.5274 76.7203 66.5993 76.74 66.6712L-71.7917 107.344ZM-69.3622 115.317C-68.9186 116.636 -68.4569 117.947 -67.9773 119.249L76.5323 66.0232C76.5587 66.0949 76.584 66.1669 76.6083 66.239L-69.3622 115.317ZM-66.4794 123.143C-65.9606 124.437 -65.4241 125.72 -64.8701 126.995L76.3604 65.5948C76.3912 65.6656 76.4209 65.7368 76.4496 65.8083L-66.4794 123.143ZM-63.1526 130.796C-62.5604 132.058 -61.9508 133.31 -61.3242 134.552L76.163 65.1741C76.1979 65.2434 76.2319 65.3132 76.2649 65.3835L-63.1526 130.796ZM-59.3908 138.251C-58.7276 139.477 -58.0475 140.691 -57.3509 141.895L75.9406 64.7631C75.9797 64.8306 76.0178 64.8987 76.0549 64.9673L-59.3908 138.251ZM-55.2072 145.48C-54.4752 146.666 -53.7268 147.84 -52.9623 149.002L75.6933 64.3627C75.7365 64.4285 75.7788 64.4947 75.82 64.5615L-55.2072 145.48ZM-50.6145 152.461C-49.8153 153.603 -49.0001 154.733 -48.1692 155.851L75.4204 63.9727C75.468 64.0368 75.5146 64.1013 75.56 64.1664L-50.6145 152.461ZM-45.6255 159.172C-44.7611 160.268 -43.8811 161.35 -42.986 162.42L75.1204 63.5926C75.1727 63.6552 75.2239 63.7181 75.2739 63.7815L-45.6255 159.172ZM-40.253 165.592C-39.3256 166.638 -38.3832 167.67 -37.426 168.689L74.7913 63.2216C74.8487 63.2827 74.9048 63.3442 74.9597 63.4061L-40.253 165.592ZM-34.5091 171.704C-33.5215 172.696 -32.5193 173.673 -31.5027 174.637L74.4302 62.8591C74.4932 62.9188 74.5547 62.9789 74.6149 63.0394L-34.5091 171.704ZM-28.409 177.485C-27.3634 178.42 -26.3036 179.34 -25.2301 180.245L74.034 62.5051C74.1031 62.5634 74.1707 62.622 74.2367 62.681L-28.409 177.485ZM-21.9674 182.915C-20.8662 183.79 -19.7515 184.649 -18.6234 185.493L73.5999 62.1604C73.6756 62.217 73.7496 62.2741 73.8219 62.3315L-21.9674 182.915ZM-15.1999 187.975C-14.0463 188.786 -12.8796 189.581 -11.7 190.36L73.1252 61.8269C73.2078 61.8814 73.2887 61.9365 73.3678 61.9921L-15.1999 187.975ZM-8.12458 192.644C-6.92168 193.388 -5.70631 194.115 -4.47879 194.825L72.6085 61.5075C72.6982 61.5594 72.7861 61.612 72.8721 61.6652L-8.12458 192.644ZM-0.763149 196.901C0.485901 197.574 1.74672 198.23 3.019 198.868L72.0497 61.2063C72.1463 61.2548 72.2412 61.3042 72.3343 61.3544L-0.763149 196.901ZM6.86206 200.724C8.15299 201.324 9.45491 201.905 10.7675 202.468L71.4507 60.9281C71.5538 60.9724 71.6553 61.0177 71.7551 61.0641L6.86206 200.724ZM14.7246 204.095C16.0515 204.617 17.3885 205.121 18.7352 205.605L70.8163 60.6785C70.9248 60.7175 71.0319 60.7578 71.1376 60.7995L14.7246 204.095ZM22.7943 206.995C24.1514 207.437 25.5175 207.859 26.8923 208.261L70.1534 60.4626C70.2658 60.4956 70.3773 60.53 70.4876 60.566L22.7943 206.995ZM31.0347 209.406C32.4162 209.766 33.8055 210.105 35.2024 210.424L69.472 60.2853C69.5865 60.3115 69.7005 60.3393 69.8139 60.3688L31.0347 209.406ZM39.4026 211.316C40.8038 211.592 42.2115 211.847 43.6255 212.081L68.785 60.1501C68.8995 60.1691 69.0139 60.1898 69.1283 60.2123L39.4026 211.316ZM47.8611 212.717C49.2752 212.908 50.6945 213.078 52.1187 213.226L68.1079 60.0587C68.2195 60.0704 68.3317 60.0838 68.4446 60.099L47.8611 212.717ZM56.3659 213.606C57.782 213.711 59.2019 213.795 60.6253 213.859L67.4587 60.0103C67.5641 60.015 67.671 60.0213 67.7792 60.0293L56.3659 213.606ZM64.871 213.984C65.5801 213.995 66.2897 214 67 214V60C67.0495 60 67.0995 60.0004 67.15 60.0011L64.871 213.984ZM67 214C67.7103 214 68.42 213.995 69.129 213.984L66.85 60.0011C66.9005 60.0004 66.9505 60 67 60V214ZM73.3748 213.859C74.7982 213.795 76.2181 213.711 77.6342 213.606L66.2208 60.0293C66.329 60.0213 66.4359 60.015 66.5413 60.0103L73.3748 213.859ZM81.8814 213.226C83.3056 213.078 84.7249 212.908 86.139 212.717L65.5554 60.099C65.6683 60.0838 65.7805 60.0704 65.8921 60.0587L81.8814 213.226ZM90.3745 212.081C91.7885 211.847 93.1963 211.592 94.5974 211.316L64.8717 60.2123C64.9861 60.1898 65.1005 60.1691 65.2149 60.1501L90.3745 212.081ZM98.7977 210.424C100.195 210.105 101.584 209.766 102.965 209.406L64.1861 60.3688C64.2995 60.3393 64.4135 60.3115 64.528 60.2853L98.7977 210.424ZM107.108 208.261C108.483 207.859 109.849 207.437 111.206 206.995L63.5123 60.566C63.6227 60.53 63.7342 60.4956 63.8466 60.4626L107.108 208.261ZM115.265 205.605C116.611 205.121 117.948 204.617 119.275 204.095L62.8624 60.7995C62.9681 60.7578 63.0752 60.7175 63.1837 60.6785L115.265 205.605ZM123.233 202.468C124.545 201.905 125.847 201.324 127.138 200.724L62.2449 61.0641C62.3447 61.0177 62.4462 60.9724 62.5493 60.9281L123.233 202.468ZM130.981 198.868C132.253 198.23 133.514 197.574 134.763 196.901L61.6657 61.3544C61.7588 61.3042 61.8537 61.2548 61.9503 61.2063L130.981 198.868ZM138.479 194.825C139.706 194.115 140.922 193.388 142.125 192.644L61.1279 61.6652C61.2139 61.612 61.3018 61.5594 61.3915 61.5075L138.479 194.825ZM145.7 190.36C146.88 189.581 148.046 188.786 149.2 187.975L60.6323 61.9921C60.7113 61.9365 60.7922 61.8814 60.8748 61.8269L145.7 190.36ZM152.623 185.493C153.751 184.649 154.866 183.79 155.967 182.915L60.1781 62.3315C60.2504 62.2741 60.3244 62.217 60.4001 62.1604L152.623 185.493ZM159.23 180.245C160.304 179.34 161.363 178.42 162.409 177.485L59.7633 62.681C59.8293 62.622 59.8969 62.5634 59.966 62.5051L159.23 180.245ZM165.503 174.637C166.519 173.673 167.521 172.696 168.509 171.704L59.3851 63.0394C59.4453 62.9789 59.5068 62.9188 59.5698 62.8591L165.503 174.637ZM171.426 168.689C172.383 167.67 173.326 166.638 174.253 165.592L59.0403 63.4061C59.0952 63.3442 59.1513 63.2827 59.2088 63.2216L171.426 168.689ZM176.986 162.42C177.881 161.35 178.761 160.268 179.625 159.172L58.7261 63.7815C58.7761 63.7181 58.8273 63.6552 58.8796 63.5926L176.986 162.42ZM182.169 155.851C183 154.733 183.815 153.603 184.614 152.461L58.44 64.1664C58.4854 64.1013 58.532 64.0368 58.5796 63.9727L182.169 155.851ZM186.962 149.002C187.727 147.84 188.475 146.666 189.207 145.48L58.18 64.5615C58.2212 64.4947 58.2634 64.4285 58.3067 64.3627L186.962 149.002ZM191.351 141.895C192.048 140.691 192.728 139.477 193.391 138.251L57.9451 64.9673C57.9822 64.8987 58.0203 64.8306 58.0594 64.7631L191.351 141.895ZM195.324 134.552C195.951 133.31 196.56 132.058 197.153 130.796L57.7351 65.3835C57.7681 65.3132 57.8021 65.2434 57.837 65.1741L195.324 134.552ZM198.87 126.995C199.424 125.72 199.961 124.436 200.479 123.143L57.5504 65.8083C57.5791 65.7368 57.6088 65.6656 57.6396 65.5948L198.87 126.995ZM201.977 119.249C202.457 117.947 202.919 116.636 203.362 115.317L57.3917 66.239C57.416 66.1669 57.4413 66.0949 57.4677 66.0232L201.977 119.249ZM204.636 111.342C205.039 110.017 205.425 108.684 205.792 107.344L57.26 66.6712C57.2797 66.5993 57.3004 66.5274 57.3223 66.4556L204.636 111.342ZM206.835 103.311C207.162 101.966 207.471 100.615 207.761 99.2571L57.1559 67.0984C57.171 67.0279 57.1871 66.9571 57.2044 66.886L206.835 103.311ZM208.571 95.1826C208.821 93.8233 209.052 92.4582 209.264 91.0877L57.0796 67.5125C57.0901 67.4448 57.1016 67.3765 57.1143 67.3075L208.571 95.1826ZM209.84 86.9902C210.013 85.6225 210.166 84.2501 210.301 82.8734L57.0301 67.9037C57.0362 67.8407 57.0434 67.7765 57.0516 67.7113L209.84 86.9902ZM210.644 78.7692C210.739 77.4015 210.815 76.0303 210.872 74.656L57.0051 68.2609C57.0074 68.2046 57.0106 68.1466 57.0147 68.087L210.644 78.7692ZM210.986 70.5558C210.995 69.8712 211 69.1859 211 68.5H57C57 68.4749 57.0002 68.4493 57.0005 68.4232L210.986 70.5558Z" fill="white" fill-opacity="0.7" mask="url(#path-1-inside-1_515_1096)"/>
</mask>
<g mask="url(#mask0_515_1096)">
<path d="M49.312 18.432H71.344L104.608 115.92L112.96 117.36V126H70.48V117.36L81.28 115.92L75.664 97.2H38.368L32.752 116.064L44.416 117.36V126H7.696L7.552 117.36L16.192 115.92L49.312 18.432ZM59.248 42.768L56.656 31.536L53.92 42.912L41.104 87.12H72.784L59.248 42.768Z" fill="white" fill-opacity="0.7"/>
</g>
</svg>
