<svg width="133" height="152" viewBox="0 0 133 152" fill="none" xmlns="http://www.w3.org/2000/svg">
<mask id="mask0_587_583" style="mask-type:alpha" maskUnits="userSpaceOnUse" x="0" y="-1" width="133" height="153">
<mask id="path-1-inside-1_587_583" fill="white">
<ellipse cx="66.5" cy="75.999" rx="66.5" ry="76"/>
</mask>
<path d="M167.5 75.999C167.5 75.5332 167.497 75.0679 167.492 74.6031L98.4965 75.3853C98.4988 75.5894 98.5 75.794 98.5 75.999H167.5ZM167.429 71.821C167.397 70.8902 167.355 69.9617 167.302 69.0358L98.4138 72.9539C98.4367 73.3562 98.4551 73.7606 98.4689 74.1671L167.429 71.821ZM167.112 66.2517C167.038 65.3202 166.953 64.3915 166.857 63.4658L98.2214 70.5459C98.2625 70.9441 98.2991 71.3446 98.3313 71.7472L167.112 66.2517ZM166.538 60.6861C166.42 59.756 166.292 58.8291 166.153 57.9056L97.92 68.1659C97.9792 68.5593 98.034 68.955 98.0844 69.3531L166.538 60.6861ZM165.703 55.137C165.542 54.2104 165.37 53.2874 165.187 52.3682L97.5108 65.8191C97.5878 66.2067 97.6606 66.5969 97.7291 66.9896L165.703 55.137ZM164.606 49.6171C164.401 48.6959 164.184 47.7789 163.957 46.8661L96.995 63.5108C97.0896 63.8917 97.1802 64.2755 97.2666 64.6619L164.606 49.6171ZM163.244 44.1371C162.994 43.2243 162.733 42.3159 162.462 41.4122L96.3744 61.2467C96.4864 61.6198 96.5943 61.9958 96.6982 62.3748L163.244 44.1371ZM161.615 38.7099C161.321 37.808 161.016 36.911 160.7 36.0192L95.6513 59.0332C95.7801 59.3971 95.9049 59.7641 96.0259 60.1343L161.615 38.7099ZM159.719 33.35C159.38 32.4612 159.03 31.5777 158.67 30.6998L94.8285 56.8767C94.9735 57.2303 95.1148 57.5872 95.2523 57.9476L159.719 33.35ZM157.554 28.0703C157.17 27.1967 156.776 26.3289 156.371 25.4672L93.9093 54.7841C94.0699 55.1262 94.227 55.472 94.3805 55.8214L157.554 28.0703ZM155.119 22.8839C154.691 22.0276 154.252 21.1776 153.803 20.3341L92.8977 52.7623C93.0732 53.0918 93.2453 53.4252 93.4141 53.7625L155.119 22.8839ZM152.414 17.8044C151.94 16.9663 151.455 16.135 150.961 15.3108L91.7975 50.8172C91.9873 51.1334 92.174 51.4538 92.3576 51.7784L152.414 17.8044ZM149.438 12.8458C148.918 12.0284 148.388 11.2183 147.847 10.4158L90.6149 48.9577C90.8181 49.2594 91.0185 49.5656 91.216 49.8761L149.438 12.8458ZM146.189 8.02272C145.623 7.22861 145.047 6.44238 144.461 5.66432L89.3561 47.191C89.5716 47.477 89.7846 47.7676 89.995 48.0629L146.189 8.02272ZM142.668 3.35048C142.056 2.58261 141.434 1.82323 140.802 1.07262L88.028 45.5239C88.2546 45.793 88.479 46.0669 88.7011 46.3457L142.668 3.35048ZM138.871 -1.15706C138.214 -1.8945 137.547 -2.62284 136.87 -3.34176L86.6381 43.963C86.8741 44.2136 87.1083 44.4694 87.3405 44.7301L138.871 -1.15706ZM134.801 -5.47769C134.1 -6.18165 133.388 -6.87583 132.667 -7.55991L85.1945 42.5139C85.4386 42.7454 85.6811 42.982 85.9221 43.2238L134.801 -5.47769ZM130.461 -9.59163C129.714 -10.2595 128.958 -10.9169 128.191 -11.5635L83.7047 41.1809C83.9558 41.3927 84.2056 41.6097 84.4542 41.8321L130.461 -9.59163ZM125.852 -13.4775C125.061 -14.1058 124.26 -14.7228 123.449 -15.3281L82.1781 39.9686C82.4348 40.1601 82.6906 40.3571 82.9454 40.5594L125.852 -13.4775ZM120.982 -17.1122C120.147 -17.6968 119.302 -18.2692 118.448 -18.8291L80.6233 38.8797C80.8842 39.0507 81.1446 39.2271 81.4042 39.4089L120.982 -17.1122ZM115.854 -20.4723C114.978 -21.0085 114.092 -21.5316 113.197 -22.0412L79.048 37.9156C79.3118 38.0658 79.5752 38.2213 79.8381 38.3822L115.854 -20.4723ZM110.483 -23.5309C109.568 -24.0142 108.644 -24.4835 107.711 -24.9385L77.4588 37.0759C77.7244 37.2055 77.9898 37.3403 78.2548 37.4802L110.483 -23.5309ZM104.885 -26.2611C103.934 -26.6873 102.975 -27.0987 102.007 -27.4949L75.8605 36.3593C76.1274 36.4686 76.3941 36.5829 76.6605 36.7023L104.885 -26.2611ZM99.0808 -28.6371C98.0982 -29.002 97.1079 -29.3512 96.1101 -29.6844L74.2563 35.7634C74.5242 35.8528 74.7918 35.9472 75.059 36.0464L99.0808 -28.6371ZM93.0966 -30.6347C92.0877 -30.9344 91.0718 -31.2177 90.0493 -31.4842L72.6467 35.2852C72.9156 35.3553 73.184 35.4301 73.4518 35.5097L93.0966 -30.6347ZM86.967 -32.232C85.9367 -32.4635 84.9005 -32.678 83.8587 -32.8751L71.0293 34.9217C71.3 34.9729 71.5699 35.0288 71.839 35.0892L86.967 -32.232ZM80.7286 -33.4124C79.6827 -33.5736 78.632 -33.7173 77.5768 -33.8432L69.3996 34.6705C69.6733 34.7032 69.9457 34.7404 70.2169 34.7822L80.7286 -33.4124ZM74.4213 -34.1655C73.3684 -34.2549 72.3119 -34.3267 71.252 -34.3805L67.7527 34.5307C68.0302 34.5448 68.3059 34.5635 68.5799 34.5868L74.4213 -34.1655ZM68.088 -34.4875C67.5593 -34.4965 67.03 -34.501 66.5 -34.501V34.499C66.6408 34.499 66.781 34.5002 66.9207 34.5026L68.088 -34.4875ZM66.5 -34.501C65.97 -34.501 65.4406 -34.4965 64.9119 -34.4875L66.0793 34.5026C66.219 34.5002 66.3592 34.499 66.5 34.499V-34.501ZM61.7479 -34.3805C60.688 -34.3267 59.6315 -34.2549 58.5786 -34.1655L64.4201 34.5868C64.6941 34.5635 64.9698 34.5448 65.2473 34.5307L61.7479 -34.3805ZM55.4232 -33.8432C54.3679 -33.7173 53.3172 -33.5736 52.2713 -33.4123L62.7831 34.7822C63.0542 34.7405 63.3267 34.7032 63.6004 34.6705L55.4232 -33.8432ZM49.1412 -32.8751C48.0994 -32.678 47.0632 -32.4635 46.033 -32.2319L61.161 35.0892C61.43 35.0288 61.6999 34.9729 61.9707 34.9217L49.1412 -32.8751ZM42.9507 -31.4841C41.9282 -31.2176 40.9123 -30.9344 39.9033 -30.6347L59.5481 35.5097C59.816 35.4301 60.0844 35.3553 60.3533 35.2852L42.9507 -31.4841ZM36.8899 -29.6844C35.8921 -29.3512 34.9017 -29.002 33.9192 -28.6371L57.941 36.0464C58.2082 35.9472 58.4758 35.8529 58.7437 35.7634L36.8899 -29.6844ZM30.9929 -27.4949C30.0254 -27.0987 29.0661 -26.6873 28.1152 -26.2611L56.3395 36.7023C56.6059 36.5829 56.8726 36.4686 57.1395 36.3593L30.9929 -27.4949ZM25.2887 -24.9385C24.3561 -24.4835 23.4322 -24.0142 22.5173 -23.5309L54.7452 37.4802C55.0102 37.3403 55.2756 37.2055 55.5412 37.0759L25.2887 -24.9385ZM19.8025 -22.0412C18.9077 -21.5315 18.0222 -21.0085 17.146 -20.4723L53.1619 38.3822C53.4248 38.2213 53.6882 38.0658 53.9519 37.9156L19.8025 -22.0412ZM14.5522 -18.8291C13.698 -18.2692 12.8534 -17.6968 12.0185 -17.1122L51.5958 39.4089C51.8554 39.2271 52.1158 39.0507 52.3767 38.8797L14.5522 -18.8291ZM9.55114 -15.3281C8.7401 -14.7228 7.93884 -14.1058 7.14751 -13.4775L50.0546 40.5594C50.3094 40.3571 50.5652 40.1601 50.8219 39.9686L9.55114 -15.3281ZM4.809 -11.5635C4.04246 -10.9169 3.28583 -10.2596 2.53927 -9.59164L48.5458 41.8321C48.7944 41.6097 49.0442 41.3927 49.2953 41.1809L4.809 -11.5635ZM0.333357 -7.55992C-0.388208 -6.87584 -1.09976 -6.18167 -1.80116 -5.47771L47.0779 43.2238C47.3189 42.982 47.5615 42.7453 47.8055 42.5139L0.333357 -7.55992ZM-3.8701 -3.34178C-4.54712 -2.62286 -5.21405 -1.89453 -5.87074 -1.15708L45.6595 44.7301C45.8917 44.4694 46.1259 44.2136 46.3619 43.963L-3.8701 -3.34178ZM-7.80181 1.0726C-8.43405 1.82321 -9.05611 2.58259 -9.66787 3.35046L44.2989 46.3457C44.521 46.0669 44.7454 45.793 44.972 45.5239L-7.80181 1.0726ZM-11.4609 5.6643C-12.0472 6.44236 -12.6234 7.22858 -13.1892 8.0227L43.005 48.0629C43.2154 47.7676 43.4284 47.477 43.6439 47.191L-11.4609 5.6643ZM-14.8471 10.4158C-15.3875 11.2183 -15.9177 12.0283 -16.4376 12.8457L41.784 49.8761C41.9815 49.5655 42.1819 49.2594 42.3851 48.9577L-14.8471 10.4158ZM-17.9608 15.3108C-18.4555 16.135 -18.9399 16.9663 -19.414 17.8044L40.6424 51.7784C40.826 51.4538 41.0127 51.1334 41.2025 50.8172L-17.9608 15.3108ZM-20.8026 20.334C-21.2518 21.1776 -21.6907 22.0276 -22.1192 22.8839L39.5859 53.7625C39.7547 53.4252 39.9268 53.0918 40.1023 52.7623L-20.8026 20.334ZM-23.3715 25.4672C-23.776 26.3289 -24.1701 27.1967 -24.5539 28.0703L38.6195 55.8214C38.773 55.472 38.9301 55.1262 39.0907 54.7841L-23.3715 25.4672ZM-25.6703 30.6998C-26.0302 31.5777 -26.3799 32.4612 -26.719 33.35L37.7477 57.9476C37.8852 57.5872 38.0265 57.2303 38.1715 56.8767L-25.6703 30.6998ZM-27.7002 36.0192C-28.0157 36.911 -28.3209 37.808 -28.6155 38.71L36.9741 60.1343C37.0951 59.7641 37.2199 59.3971 37.3487 59.0332L-27.7002 36.0192ZM-29.4622 41.4122C-29.7334 42.3159 -29.9941 43.2243 -30.2443 44.1372L36.3018 62.3748C36.4057 61.9959 36.5136 61.6198 36.6256 61.2467L-29.4622 41.4122ZM-30.9573 46.8662C-31.1842 47.7789 -31.4006 48.696 -31.6064 49.6171L35.7334 64.6619C35.8198 64.2755 35.9103 63.8917 36.005 63.5108L-30.9573 46.8662ZM-32.187 52.3682C-32.3697 53.2874 -32.5419 54.2104 -32.7035 55.1371L35.2709 66.9897C35.3394 66.5969 35.4122 66.2067 35.4892 65.8191L-32.187 52.3682ZM-33.1529 57.9057C-33.2918 58.8292 -33.4202 59.7561 -33.5379 60.6862L34.9156 69.3532C34.966 68.9551 35.0208 68.5593 35.08 68.166L-33.1529 57.9057ZM-33.8572 63.4658C-33.9527 64.3916 -34.0377 65.3203 -34.1121 66.2517L34.6687 71.7473C34.7009 71.3446 34.7375 70.9441 34.7786 70.5459L-33.8572 63.4658ZM-34.3025 69.0359C-34.3551 69.9618 -34.3974 70.8903 -34.429 71.8211L34.5311 74.1672C34.5449 73.7607 34.5633 73.3562 34.5862 72.9539L-34.3025 69.0359ZM-34.4921 74.6032C-34.4974 75.0679 -34.5 75.5332 -34.5 75.999H34.5C34.5 75.794 34.5012 75.5894 34.5035 75.3854L-34.4921 74.6032ZM-34.5 75.999C-34.5 76.4649 -34.4974 76.9302 -34.4921 77.395L34.5035 76.6127C34.5012 76.4086 34.5 76.2041 34.5 75.999H-34.5ZM-34.429 80.1771C-34.3974 81.1079 -34.3551 82.0363 -34.3025 82.9622L34.5862 79.0442C34.5633 78.6419 34.5449 78.2374 34.5311 77.8309L-34.429 80.1771ZM-34.1121 85.7464C-34.0377 86.6779 -33.9527 87.6065 -33.8572 88.5323L34.7786 81.4522C34.7375 81.054 34.7009 80.6535 34.6687 80.2508L-34.1121 85.7464ZM-33.5379 91.3119C-33.4202 92.242 -33.2918 93.1689 -33.1529 94.0924L35.08 83.8321C35.0208 83.4388 34.966 83.043 34.9156 82.6449L-33.5379 91.3119ZM-32.7035 96.861C-32.5419 97.7877 -32.3697 98.7107 -32.187 99.6299L35.4892 86.1789C35.4122 85.7913 35.3394 85.4011 35.2709 85.0084L-32.7035 96.861ZM-31.6064 102.381C-31.4006 103.302 -31.1842 104.219 -30.9573 105.132L36.005 88.4873C35.9104 88.1063 35.8198 87.7226 35.7334 87.3361L-31.6064 102.381ZM-30.2443 107.861C-29.9941 108.774 -29.7334 109.682 -29.4621 110.586L36.6256 90.7513C36.5136 90.3783 36.4057 90.0022 36.3018 89.6232L-30.2443 107.861ZM-28.6155 113.288C-28.3209 114.19 -28.0157 115.087 -27.7002 115.979L37.3487 92.9649C37.2199 92.601 37.0951 92.2339 36.9741 91.8637L-28.6155 113.288ZM-26.719 118.648C-26.3799 119.537 -26.0302 120.42 -25.6703 121.298L38.1715 95.1214C38.0265 94.7678 37.8852 94.4108 37.7477 94.0504L-26.719 118.648ZM-24.5539 123.928C-24.1701 124.801 -23.776 125.669 -23.3715 126.531L39.0907 97.214C38.9301 96.8719 38.773 96.5261 38.6195 96.1767L-24.5539 123.928ZM-22.1192 129.114C-21.6907 129.97 -21.2518 130.82 -20.8026 131.664L40.1023 99.2358C39.9268 98.9062 39.7547 98.5728 39.5859 98.2355L-22.1192 129.114ZM-19.414 134.194C-18.9399 135.032 -18.4555 135.863 -17.9608 136.687L41.2025 101.181C41.0127 100.865 40.826 100.544 40.6424 100.22L-19.414 134.194ZM-16.4376 139.152C-15.9177 139.97 -15.3875 140.78 -14.8471 141.582L42.3851 103.04C42.1819 102.739 41.9815 102.432 41.784 102.122L-16.4376 139.152ZM-13.1892 143.975C-12.6234 144.769 -12.0472 145.556 -11.4609 146.334L43.6439 104.807C43.4284 104.521 43.2154 104.23 43.005 103.935L-13.1892 143.975ZM-9.66789 148.648C-9.05612 149.415 -8.43406 150.175 -7.80183 150.925L44.972 106.474C44.7454 106.205 44.521 105.931 44.2989 105.652L-9.66789 148.648ZM-5.87076 153.155C-5.21407 153.893 -4.54714 154.621 -3.87012 155.34L46.3619 108.035C46.1259 107.784 45.8917 107.529 45.6595 107.268L-5.87076 153.155ZM-1.80118 157.476C-1.09978 158.18 -0.388223 158.874 0.333343 159.558L47.8055 109.484C47.5615 109.253 47.3189 109.016 47.0779 108.774L-1.80118 157.476ZM2.53927 161.59C3.28583 162.258 4.04245 162.915 4.80899 163.562L49.2953 110.817C49.0442 110.605 48.7944 110.388 48.5458 110.166L2.53927 161.59ZM7.14751 165.476C7.93884 166.104 8.7401 166.721 9.55114 167.326L50.8219 112.029C50.5652 111.838 50.3094 111.641 50.0546 111.439L7.14751 165.476ZM12.0185 169.11C12.8534 169.695 13.698 170.267 14.5522 170.827L52.3767 113.118C52.1158 112.947 51.8554 112.771 51.5958 112.589L12.0185 169.11ZM17.1461 172.47C18.0222 173.007 18.9077 173.53 19.8025 174.039L53.952 114.082C53.6882 113.932 53.4248 113.777 53.1619 113.616L17.1461 172.47ZM22.5173 175.529C23.4322 176.012 24.3561 176.482 25.2887 176.937L55.5412 114.922C55.2756 114.793 55.0102 114.658 54.7452 114.518L22.5173 175.529ZM28.1153 178.259C29.0661 178.685 30.0254 179.097 30.9929 179.493L57.1395 115.639C56.8726 115.529 56.6059 115.415 56.3395 115.296L28.1153 178.259ZM33.9192 180.635C34.9018 181 35.8921 181.349 36.8899 181.682L58.7437 116.235C58.4758 116.145 58.2082 116.051 57.941 115.952L33.9192 180.635ZM39.9034 182.633C40.9123 182.932 41.9282 183.216 42.9507 183.482L60.3533 116.713C60.0844 116.643 59.816 116.568 59.5482 116.488L39.9034 182.633ZM46.033 184.23C47.0633 184.462 48.0995 184.676 49.1413 184.873L61.9707 117.076C61.6999 117.025 61.4301 116.969 61.161 116.909L46.033 184.23ZM52.2714 185.41C53.3173 185.572 54.368 185.715 55.4232 185.841L63.6004 117.328C63.3267 117.295 63.0543 117.258 62.7831 117.216L52.2714 185.41ZM58.5787 186.164C59.6316 186.253 60.6881 186.325 61.748 186.379L65.2473 117.467C64.9698 117.453 64.6941 117.435 64.4201 117.411L58.5787 186.164ZM64.912 186.486C65.4407 186.495 65.97 186.499 66.5 186.499V117.499C66.3592 117.499 66.219 117.498 66.0793 117.495L64.912 186.486ZM66.5 186.499C67.03 186.499 67.5594 186.495 68.0881 186.486L66.9207 117.495C66.781 117.498 66.6408 117.499 66.5 117.499V186.499ZM71.2521 186.379C72.312 186.325 73.3685 186.253 74.4214 186.164L68.5799 117.411C68.3059 117.435 68.0302 117.453 67.7527 117.467L71.2521 186.379ZM77.5768 185.841C78.6321 185.715 79.6828 185.572 80.7287 185.41L70.2169 117.216C69.9458 117.258 69.6733 117.295 69.3996 117.328L77.5768 185.841ZM83.8588 184.873C84.9006 184.676 85.9368 184.462 86.967 184.23L71.839 116.909C71.5699 116.969 71.3001 117.025 71.0293 117.076L83.8588 184.873ZM90.0493 183.482C91.0718 183.216 92.0877 182.932 93.0967 182.633L73.4519 116.488C73.184 116.568 72.9156 116.643 72.6467 116.713L90.0493 183.482ZM96.1101 181.682C97.1079 181.349 98.0983 181 99.0808 180.635L75.059 115.952C74.7918 116.051 74.5242 116.145 74.2563 116.235L96.1101 181.682ZM102.007 179.493C102.975 179.097 103.934 178.685 104.885 178.259L76.6605 115.296C76.3941 115.415 76.1274 115.529 75.8605 115.639L102.007 179.493ZM107.711 176.937C108.644 176.482 109.568 176.012 110.483 175.529L78.2548 114.518C77.9898 114.658 77.7244 114.793 77.4588 114.922L107.711 176.937ZM113.198 174.039C114.092 173.53 114.978 173.007 115.854 172.47L79.8381 113.616C79.5752 113.777 79.3118 113.932 79.0481 114.082L113.198 174.039ZM118.448 170.827C119.302 170.267 120.147 169.695 120.982 169.11L81.4042 112.589C81.1446 112.771 80.8842 112.947 80.6233 113.118L118.448 170.827ZM123.449 167.326C124.26 166.721 125.061 166.104 125.852 165.476L82.9454 111.439C82.6906 111.641 82.4348 111.838 82.1781 112.029L123.449 167.326ZM128.191 163.562C128.958 162.915 129.714 162.258 130.461 161.59L84.4542 110.166C84.2056 110.388 83.9558 110.605 83.7047 110.817L128.191 163.562ZM132.667 159.558C133.388 158.874 134.1 158.18 134.801 157.476L85.9221 108.774C85.6811 109.016 85.4385 109.253 85.1945 109.484L132.667 159.558ZM136.87 155.34C137.547 154.621 138.214 153.893 138.871 153.155L87.3405 107.268C87.1083 107.529 86.8741 107.784 86.6381 108.035L136.87 155.34ZM140.802 150.925C141.434 150.175 142.056 149.415 142.668 148.648L88.7011 105.652C88.479 105.931 88.2546 106.205 88.028 106.474L140.802 150.925ZM144.461 146.334C145.047 145.556 145.623 144.769 146.189 143.975L89.995 103.935C89.7846 104.23 89.5716 104.521 89.3561 104.807L144.461 146.334ZM147.847 141.582C148.387 140.78 148.918 139.97 149.438 139.152L91.216 102.122C91.0185 102.433 90.8181 102.739 90.6149 103.04L147.847 141.582ZM150.961 136.687C151.455 135.863 151.94 135.032 152.414 134.194L92.3576 100.22C92.174 100.544 91.9873 100.865 91.7975 101.181L150.961 136.687ZM153.803 131.664C154.252 130.82 154.691 129.97 155.119 129.114L93.4141 98.2355C93.2453 98.5728 93.0732 98.9062 92.8977 99.2358L153.803 131.664ZM156.371 126.531C156.776 125.669 157.17 124.801 157.554 123.928L94.3805 96.1767C94.227 96.5261 94.0699 96.8719 93.9093 97.214L156.371 126.531ZM158.67 121.298C159.03 120.42 159.38 119.537 159.719 118.648L95.2523 94.0504C95.1148 94.4108 94.9735 94.7678 94.8285 95.1214L158.67 121.298ZM160.7 115.979C161.016 115.087 161.321 114.19 161.615 113.288L96.0259 91.8637C95.9049 92.2339 95.7801 92.601 95.6513 92.9649L160.7 115.979ZM162.462 110.586C162.733 109.682 162.994 108.774 163.244 107.861L96.6982 89.6232C96.5943 90.0022 96.4864 90.3782 96.3744 90.7513L162.462 110.586ZM163.957 105.132C164.184 104.219 164.401 103.302 164.606 102.381L97.2666 87.3361C97.1802 87.7226 97.0897 88.1063 96.995 88.4873L163.957 105.132ZM165.187 99.6298C165.37 98.7106 165.542 97.7876 165.703 96.861L97.7291 85.0084C97.6606 85.4011 97.5878 85.7913 97.5108 86.1789L165.187 99.6298ZM166.153 94.0924C166.292 93.1688 166.42 92.242 166.538 91.3119L98.0844 82.6449C98.034 83.043 97.9792 83.4387 97.92 83.8321L166.153 94.0924ZM166.857 88.5322C166.953 87.6065 167.038 86.6778 167.112 85.7463L98.3313 80.2508C98.2991 80.6535 98.2625 81.0539 98.2214 81.4522L166.857 88.5322ZM167.302 82.9622C167.355 82.0362 167.397 81.1078 167.429 80.177L98.4689 77.8309C98.4551 78.2374 98.4367 78.6418 98.4138 79.0441L167.302 82.9622ZM167.492 77.3949C167.497 76.9301 167.5 76.4648 167.5 75.999H98.5C98.5 76.2041 98.4988 76.4086 98.4965 76.6127L167.492 77.3949ZM202 75.999C202 75.4028 201.997 74.8071 201.99 74.212L63.9987 75.7765C63.9996 75.8502 64 75.9243 64 75.999H202ZM201.909 70.6479C201.868 69.455 201.814 68.2645 201.747 67.0768L63.9695 74.9129C63.9775 75.0534 63.984 75.1958 63.9889 75.3402L201.909 70.6479ZM201.503 63.5039C201.407 62.308 201.298 61.1152 201.175 59.9257L63.9035 74.0859C63.9174 74.2204 63.9299 74.3567 63.9409 74.495L201.503 63.5039ZM200.765 56.3526C200.613 55.1565 200.448 53.9641 200.269 52.7755L63.8036 73.2961C63.8229 73.4243 63.8409 73.5545 63.8577 73.6867L200.765 56.3526ZM199.691 49.2107C199.483 48.0171 199.261 46.8277 199.025 45.6427L63.6726 72.5446C63.6969 72.6664 63.72 72.7902 63.7419 72.916L199.691 49.2107ZM198.276 42.0946C198.011 40.9062 197.731 39.7225 197.438 38.5438L63.5138 71.8331C63.5424 71.9481 63.57 72.0652 63.5966 72.1844L198.276 42.0946ZM196.517 35.0183C196.194 33.8385 195.857 32.6639 195.506 31.4949L63.3305 71.164C63.3629 71.2718 63.3944 71.3816 63.4251 71.4937L196.517 35.0183ZM194.41 27.9977C194.029 26.8299 193.634 25.668 193.225 24.5122L63.1269 70.5402C63.1622 70.6401 63.197 70.7422 63.2311 70.8465L194.41 27.9977ZM191.952 21.0512C191.512 19.8981 191.059 18.7515 190.591 17.6114L62.9076 69.9651C62.9451 70.0565 62.9822 70.1503 63.0189 70.2464L191.952 21.0512ZM189.141 14.1948C188.642 13.0591 188.129 11.9303 187.603 10.8087L62.6783 69.4425C62.7169 69.5248 62.7554 69.6096 62.7938 69.6969L189.141 14.1948ZM185.972 7.44465C185.413 6.32881 184.841 5.22047 184.255 4.11994L62.4452 68.9764C62.4839 69.0489 62.5227 69.1241 62.5616 69.2018L185.972 7.44465ZM182.442 0.817453C181.823 -0.277407 181.19 -1.36414 180.542 -2.44242L62.2159 68.5704C62.2532 68.6326 62.2911 68.6976 62.3294 68.7653L182.442 0.817453ZM178.548 -5.66939C177.867 -6.74023 177.172 -7.80227 176.463 -8.85516L61.9988 68.2287C62.0334 68.28 62.0689 68.3341 62.1052 68.3912L178.548 -5.66939ZM174.286 -11.9974C173.543 -13.0409 172.785 -14.0749 172.013 -15.099L61.8037 67.9543C61.8338 67.9943 61.8653 68.0371 61.898 68.083L174.286 -11.9974ZM169.651 -18.1471C168.845 -19.1595 168.024 -20.1616 167.189 -21.153L61.641 67.7496C61.6648 67.7779 61.6905 67.8091 61.7178 67.8433L169.651 -18.1471ZM164.636 -24.1006C163.767 -25.0764 162.884 -26.0411 161.986 -26.9941L61.522 67.6154C61.5376 67.6319 61.5554 67.6513 61.5754 67.6737L164.636 -24.1006ZM159.241 -29.8284C158.309 -30.7635 157.363 -31.6864 156.403 -32.5968L61.4584 67.5509C61.4637 67.5559 61.4718 67.5638 61.4825 67.5745L159.241 -29.8284ZM153.464 -35.3035C152.468 -36.1942 151.458 -37.0717 150.434 -37.9357L61.4616 67.5531C61.4549 67.5475 61.4514 67.5443 61.4509 67.5439L153.464 -35.3035ZM147.306 -40.4959C146.246 -41.3372 145.172 -42.1643 144.084 -42.9765L61.5427 67.6169C61.5222 67.6016 61.5053 67.5885 61.4918 67.5778L147.306 -40.4959ZM140.77 -45.3727C139.648 -46.1588 138.511 -46.9292 137.36 -47.6835L61.7111 67.7341C61.6754 67.7107 61.6435 67.6891 61.6155 67.6694L140.77 -45.3727ZM133.862 -49.8996C132.679 -50.6234 131.482 -51.3302 130.272 -52.0196L61.9733 67.894C61.9216 67.8645 61.8739 67.8362 61.8301 67.8095L133.862 -49.8996ZM126.597 -54.0365C125.357 -54.6914 124.104 -55.328 122.837 -55.9457L62.3326 68.0831C62.2647 68.05 62.2008 68.0175 62.1408 67.9858L126.597 -54.0365ZM118.997 -57.7428C117.704 -58.3224 116.398 -58.8823 115.08 -59.422L62.7872 68.2864C62.7038 68.2522 62.6242 68.218 62.5483 68.184L118.997 -57.7428ZM111.092 -60.9788C109.751 -61.4765 108.4 -61.9532 107.037 -62.4083L63.3294 68.4873C63.2323 68.4549 63.1385 68.4217 63.0481 68.3882L111.092 -60.9788ZM102.919 -63.7069C101.539 -64.1167 100.15 -64.5041 98.7506 -64.8689L63.9454 68.6699C63.8375 68.6418 63.7322 68.6124 63.6294 68.5819L102.919 -63.7069ZM94.531 -65.8926C93.1201 -66.2096 91.7007 -66.5034 90.2734 -66.7735L64.6146 68.8201C64.4998 68.7984 64.3865 68.7749 64.2749 68.7498L94.531 -65.8926ZM85.9845 -67.5097C84.5512 -67.7306 83.1114 -67.9275 81.6653 -68.1001L65.311 68.9274C65.1939 68.9134 65.0772 68.8975 64.961 68.8795L85.9845 -67.5097ZM77.342 -68.5416C75.8997 -68.6642 74.4527 -68.7624 73.0016 -68.8361L66.003 68.9863C65.8893 68.9805 65.7746 68.9728 65.6591 68.963L77.342 -68.5416ZM68.6717 -68.9826C67.9484 -68.9949 67.2245 -69.001 66.5 -69.001V68.999C66.4462 68.999 66.3919 68.9986 66.337 68.9976L68.6717 -68.9826ZM66.5 -69.001C65.7754 -69.001 65.0515 -68.9948 64.3282 -68.9826L66.663 68.9976C66.6081 68.9986 66.5538 68.999 66.5 68.999V-69.001ZM59.9983 -68.8361C58.5471 -68.7624 57.1002 -68.6642 55.6579 -68.5416L67.3409 68.963C67.2254 68.9728 67.1107 68.9805 66.997 68.9863L59.9983 -68.8361ZM51.3345 -68.1001C49.8885 -67.9275 48.4487 -67.7306 47.0154 -67.5096L68.039 68.8795C67.9228 68.8975 67.8061 68.9134 67.689 68.9274L51.3345 -68.1001ZM42.7265 -66.7735C41.2992 -66.5034 39.8798 -66.2096 38.4689 -65.8925L68.7251 68.7498C68.6135 68.7749 68.5002 68.7984 68.3854 68.8201L42.7265 -66.7735ZM34.2493 -64.8688C32.85 -64.5041 31.4604 -64.1166 30.0809 -63.7069L69.3706 68.5819C69.2679 68.6124 69.1625 68.6418 69.0546 68.6699L34.2493 -64.8688ZM25.963 -62.4083C24.6002 -61.9532 23.2485 -61.4765 21.9083 -60.9788L69.9519 68.3882C69.8615 68.4217 69.7677 68.4549 69.6706 68.4873L25.963 -62.4083ZM17.9195 -59.4219C16.6017 -58.8823 15.2961 -58.3224 14.0031 -57.7428L70.4517 68.184C70.3758 68.218 70.2962 68.2522 70.2128 68.2864L17.9195 -59.4219ZM10.1625 -55.9457C8.89629 -55.328 7.64315 -54.6914 6.40334 -54.0365L70.8592 67.9858C70.7992 68.0175 70.7353 68.05 70.6674 68.0831L10.1625 -55.9457ZM2.72776 -52.0196C1.51747 -51.3302 0.320835 -50.6234 -0.861916 -49.8996L71.1699 67.8095C71.1261 67.8362 71.0784 67.8645 71.0267 67.894L2.72776 -52.0196ZM-4.36009 -47.6835C-5.5109 -46.9292 -6.64767 -46.1587 -7.7702 -45.3727L71.3845 67.6694C71.3565 67.6891 71.3247 67.7107 71.2889 67.7341L-4.36009 -47.6835ZM-11.0842 -42.9765C-12.1725 -42.1643 -13.2465 -41.3372 -14.306 -40.4959L71.5082 67.5778C71.4947 67.5885 71.4778 67.6016 71.4573 67.6169L-11.0842 -42.9765ZM-17.4341 -37.9357C-18.4584 -37.0717 -19.4684 -36.1942 -20.464 -35.3035L71.5491 67.5439C71.5486 67.5443 71.5451 67.5475 71.5384 67.5531L-17.4341 -37.9357ZM-23.4027 -32.5968C-24.363 -31.6864 -25.3091 -30.7635 -26.2407 -29.8285L71.5175 67.5745C71.5282 67.5638 71.5363 67.5559 71.5416 67.5509L-23.4027 -32.5968ZM-28.9861 -26.9942C-29.8836 -26.0411 -30.7669 -25.0765 -31.6359 -24.1007L71.4246 67.6737C71.4446 67.6513 71.4624 67.6319 71.478 67.6154L-28.9861 -26.9942ZM-34.1887 -21.1531C-35.0238 -20.1617 -35.8447 -19.1596 -36.6512 -18.1472L71.2822 67.8433C71.3095 67.8091 71.3352 67.7779 71.359 67.7496L-34.1887 -21.1531ZM-39.0132 -15.099C-39.785 -14.0749 -40.5427 -13.0409 -41.2863 -11.9974L71.102 68.083C71.1347 68.0371 71.1662 67.9943 71.1963 67.9543L-39.0132 -15.099ZM-43.4631 -8.8552C-44.1722 -7.8023 -44.8673 -6.74026 -45.5484 -5.66943L70.8948 68.3912C70.9311 68.3341 70.9666 68.28 71.0012 68.2287L-43.4631 -8.8552ZM-47.5424 -2.44244C-48.1896 -1.36416 -48.8229 -0.277422 -49.4422 0.817442L70.6706 68.7653C70.7089 68.6976 70.7468 68.6326 70.7841 68.5704L-47.5424 -2.44244ZM-51.2551 4.11994C-51.8411 5.22047 -52.4133 6.3288 -52.9717 7.44464L70.4384 69.2018C70.4773 69.124 70.5161 69.0489 70.5548 68.9764L-51.2551 4.11994ZM-54.6026 10.8087C-55.129 11.9303 -55.6417 13.0591 -56.1406 14.1948L70.2062 69.6969C70.2446 69.6096 70.2831 69.5248 70.3217 69.4425L-54.6026 10.8087ZM-57.5912 17.6114C-58.0586 18.7515 -58.5124 19.8982 -58.9524 21.0512L69.9811 70.2464C70.0178 70.1503 70.0549 70.0565 70.0924 69.9651L-57.5912 17.6114ZM-60.2246 24.5122C-60.6336 25.668 -61.0288 26.83 -61.4103 27.9978L69.7689 70.8465C69.803 70.7422 69.8378 70.6401 69.8731 70.5402L-60.2246 24.5122ZM-62.506 31.495C-62.8569 32.664 -63.194 33.8385 -63.5174 35.0183L69.5749 71.4937C69.6056 71.3817 69.6371 71.2718 69.6695 71.164L-62.506 31.495ZM-64.4385 38.5438C-64.7315 39.7225 -65.0108 40.9062 -65.2763 42.0947L69.4034 72.1844C69.43 72.0652 69.4576 71.9481 69.4862 71.8331L-64.4385 38.5438ZM-66.0251 45.6428C-66.2606 46.8277 -66.4825 48.0172 -66.6907 49.2108L69.2581 72.916C69.28 72.7902 69.3031 72.6664 69.3274 72.5446L-66.0251 45.6428ZM-67.2694 52.7756C-67.4481 53.9641 -67.6132 55.1566 -67.7647 56.3527L69.1423 73.6867C69.1591 73.5546 69.1771 73.4244 69.1964 73.2961L-67.2694 52.7756ZM-68.1751 59.9258C-68.2978 61.1153 -68.407 62.3081 -68.5025 63.504L69.0591 74.495C69.0701 74.3567 69.0826 74.2204 69.0965 74.0859L-68.1751 59.9258ZM-68.7468 67.0769C-68.8144 68.2646 -68.8685 69.4551 -68.9091 70.648L69.0111 75.3402C69.016 75.1958 69.0225 75.0534 69.0305 74.9129L-68.7468 67.0769ZM-68.9899 74.2121C-68.9966 74.8072 -69 75.4028 -69 75.999H69C69 75.9243 69.0004 75.8502 69.0013 75.7765L-68.9899 74.2121ZM-69 75.999C-69 76.5952 -68.9966 77.1909 -68.9899 77.7861L69.0013 76.2216C69.0004 76.1479 69 76.0737 69 75.999H-69ZM-68.9091 81.3501C-68.8685 82.5431 -68.8144 83.7335 -68.7468 84.9213L69.0305 77.0851C69.0225 76.9446 69.016 76.8022 69.0111 76.6579L-68.9091 81.3501ZM-68.5025 88.4942C-68.407 89.69 -68.2978 90.8828 -68.1751 92.0723L69.0965 77.9121C69.0826 77.7777 69.0701 77.6413 69.0591 77.503L-68.5025 88.4942ZM-67.7647 95.6455C-67.6132 96.8415 -67.4481 98.034 -67.2694 99.2226L69.1964 78.702C69.1771 78.5737 69.1591 78.4435 69.1423 78.3114L-67.7647 95.6455ZM-66.6906 102.787C-66.4825 103.981 -66.2606 105.17 -66.0251 106.355L69.3274 79.4535C69.3031 79.3316 69.28 79.2079 69.2581 79.0821L-66.6906 102.787ZM-65.2763 109.903C-65.0108 111.092 -64.7315 112.276 -64.4385 113.454L69.4862 80.165C69.4576 80.0499 69.43 79.9328 69.4034 79.8137L-65.2763 109.903ZM-63.5174 116.98C-63.194 118.16 -62.8569 119.334 -62.506 120.503L69.6695 80.8341C69.6371 80.7263 69.6056 80.6164 69.5749 80.5044L-63.5174 116.98ZM-61.4103 124C-61.0288 125.168 -60.6336 126.33 -60.2246 127.486L69.8731 81.4578C69.8378 81.358 69.803 81.2559 69.7689 81.1515L-61.4103 124ZM-58.9524 130.947C-58.5124 132.1 -58.0586 133.247 -57.5912 134.387L70.0924 82.0329C70.0549 81.9415 70.0178 81.8478 69.9811 81.7516L-58.9524 130.947ZM-56.1406 137.803C-55.6417 138.939 -55.129 140.068 -54.6026 141.189L70.3217 82.5555C70.2831 82.4732 70.2446 82.3885 70.2062 82.3012L-56.1406 137.803ZM-52.9717 144.553C-52.4133 145.669 -51.8411 146.778 -51.2551 147.878L70.5548 83.0217C70.5161 82.9491 70.4773 82.874 70.4384 82.7962L-52.9717 144.553ZM-49.4422 151.181C-48.8229 152.275 -48.1896 153.362 -47.5424 154.44L70.7841 83.4277C70.7468 83.3654 70.7089 83.3005 70.6706 83.2327L-49.4422 151.181ZM-45.5484 157.667C-44.8673 158.738 -44.1722 159.8 -43.4632 160.853L71.0012 83.7694C70.9666 83.7181 70.9311 83.6639 70.8948 83.6068L-45.5484 157.667ZM-41.2863 163.995C-40.5427 165.039 -39.785 166.073 -39.0133 167.097L71.1963 84.0437C71.1662 84.0038 71.1347 83.9609 71.102 83.915L-41.2863 163.995ZM-36.6513 170.145C-35.8447 171.158 -35.0238 172.16 -34.1888 173.151L71.359 84.2484C71.3352 84.2202 71.3095 84.189 71.2822 84.1547L-36.6513 170.145ZM-31.6359 176.099C-30.7669 177.074 -29.8837 178.039 -28.9861 178.992L71.478 84.3827C71.4624 84.3661 71.4446 84.3468 71.4246 84.3243L-31.6359 176.099ZM-26.2407 181.826C-25.3091 182.762 -24.3631 183.684 -23.4028 184.595L71.5416 84.4472C71.5363 84.4421 71.5282 84.4343 71.5175 84.4235L-26.2407 181.826ZM-20.464 187.302C-19.4684 188.192 -18.4584 189.07 -17.4341 189.934L71.5384 84.4449C71.5451 84.4506 71.5486 84.4537 71.5491 84.4541L-20.464 187.302ZM-14.3061 192.494C-13.2465 193.335 -12.1725 194.162 -11.0842 194.975L71.4573 84.3811C71.4778 84.3964 71.4947 84.4096 71.5082 84.4203L-14.3061 192.494ZM-7.77019 197.371C-6.64766 198.157 -5.51088 198.927 -4.36007 199.682L71.2889 84.2639C71.3247 84.2873 71.3565 84.309 71.3845 84.3286L-7.77019 197.371ZM-0.861888 201.898C0.320863 202.621 1.5175 203.328 2.72779 204.018L71.0267 84.1041C71.0784 84.1335 71.1261 84.1618 71.1699 84.1886L-0.861888 201.898ZM6.40337 206.035C7.64319 206.689 8.89633 207.326 10.1625 207.944L70.6674 83.9149C70.7353 83.948 70.7992 83.9806 70.8592 84.0122L6.40337 206.035ZM14.0031 209.741C15.2962 210.32 16.6018 210.88 17.9196 211.42L70.2128 83.7117C70.2962 83.7458 70.3758 83.78 70.4517 83.814L14.0031 209.741ZM21.9083 212.977C23.2486 213.475 24.6003 213.951 25.9631 214.406L69.6706 83.5108C69.7677 83.5432 69.8615 83.5763 69.9519 83.6099L21.9083 212.977ZM30.081 215.705C31.4605 216.115 32.8501 216.502 34.2494 216.867L69.0546 83.3282C69.1625 83.3563 69.2678 83.3857 69.3706 83.4162L30.081 215.705ZM38.469 217.891C39.8799 218.208 41.2993 218.501 42.7266 218.772L68.3854 83.1779C68.5002 83.1997 68.6135 83.2231 68.7251 83.2482L38.469 217.891ZM47.0155 219.508C48.4488 219.729 49.8886 219.926 51.3347 220.098L67.689 83.0707C67.8061 83.0846 67.9228 83.1006 68.039 83.1185L47.0155 219.508ZM55.658 220.54C57.1003 220.662 58.5473 220.76 59.9984 220.834L66.997 83.0117C67.1107 83.0175 67.2254 83.0253 67.3409 83.0351L55.658 220.54ZM64.3283 220.981C65.0516 220.993 65.7755 220.999 66.5 220.999V82.999C66.5538 82.999 66.6081 82.9995 66.663 83.0004L64.3283 220.981ZM66.5 220.999C67.2246 220.999 67.9485 220.993 68.6718 220.981L66.337 83.0004C66.3919 82.9995 66.4462 82.999 66.5 82.999V220.999ZM73.0017 220.834C74.4529 220.76 75.8998 220.662 77.3421 220.54L65.6591 83.0351C65.7746 83.0253 65.8893 83.0175 66.003 83.0117L73.0017 220.834ZM81.6655 220.098C83.1115 219.926 84.5514 219.729 85.9846 219.508L64.961 83.1185C65.0772 83.1006 65.1939 83.0846 65.311 83.0707L81.6655 220.098ZM90.2735 218.772C91.7009 218.501 93.1202 218.208 94.5311 217.891L64.2749 83.2482C64.3865 83.2231 64.4998 83.1997 64.6146 83.1779L90.2735 218.772ZM98.7507 216.867C100.15 216.502 101.54 216.115 102.919 215.705L63.6294 83.4162C63.7322 83.3857 63.8375 83.3563 63.9454 83.3282L98.7507 216.867ZM107.037 214.406C108.4 213.951 109.752 213.475 111.092 212.977L63.0481 83.6099C63.1385 83.5763 63.2323 83.5432 63.3294 83.5108L107.037 214.406ZM115.08 211.42C116.398 210.88 117.704 210.32 118.997 209.741L62.5483 83.814C62.6242 83.78 62.7038 83.7458 62.7872 83.7117L115.08 211.42ZM122.838 207.944C124.104 207.326 125.357 206.689 126.597 206.035L62.1408 84.0122C62.2008 83.9806 62.2647 83.948 62.3326 83.9149L122.838 207.944ZM130.272 204.018C131.483 203.328 132.679 202.621 133.862 201.898L61.8301 84.1886C61.8739 84.1618 61.9216 84.1335 61.9733 84.1041L130.272 204.018ZM137.36 199.682C138.511 198.927 139.648 198.157 140.77 197.371L61.6155 84.3286C61.6435 84.309 61.6754 84.2873 61.7111 84.2639L137.36 199.682ZM144.084 194.975C145.172 194.162 146.246 193.335 147.306 192.494L61.4918 84.4203C61.5053 84.4096 61.5222 84.3964 61.5427 84.3811L144.084 194.975ZM150.434 189.934C151.458 189.07 152.468 188.192 153.464 187.302L61.4509 84.4541C61.4514 84.4537 61.4549 84.4506 61.4616 84.4449L150.434 189.934ZM156.403 184.595C157.363 183.684 158.309 182.762 159.241 181.827L61.4825 84.4235C61.4718 84.4343 61.4637 84.4421 61.4584 84.4472L156.403 184.595ZM161.986 178.992C162.884 178.039 163.767 177.075 164.636 176.099L61.5754 84.3243C61.5554 84.3468 61.5376 84.3661 61.522 84.3827L161.986 178.992ZM167.189 173.151C168.024 172.16 168.845 171.158 169.651 170.145L61.7178 84.1547C61.6905 84.189 61.6648 84.2202 61.641 84.2484L167.189 173.151ZM172.013 167.097C172.785 166.073 173.543 165.039 174.286 163.995L61.898 83.915C61.8653 83.9609 61.8338 84.0038 61.8037 84.0437L172.013 167.097ZM176.463 160.853C177.172 159.8 177.867 158.738 178.548 157.667L62.1052 83.6068C62.0689 83.6639 62.0334 83.7181 61.9988 83.7694L176.463 160.853ZM180.542 154.44C181.19 153.362 181.823 152.275 182.442 151.181L62.3294 83.2327C62.2911 83.3005 62.2532 83.3654 62.2159 83.4277L180.542 154.44ZM184.255 147.878C184.841 146.778 185.413 145.669 185.972 144.553L62.5616 82.7962C62.5227 82.874 62.4839 82.9491 62.4452 83.0217L184.255 147.878ZM187.603 141.189C188.129 140.068 188.642 138.939 189.141 137.803L62.7938 82.3012C62.7554 82.3885 62.7169 82.4732 62.6783 82.5555L187.603 141.189ZM190.591 134.387C191.059 133.247 191.512 132.1 191.952 130.947L63.0189 81.7516C62.9822 81.8478 62.9451 81.9415 62.9076 82.0329L190.591 134.387ZM193.225 127.486C193.634 126.33 194.029 125.168 194.41 124L63.2311 81.1515C63.197 81.2559 63.1622 81.358 63.1269 81.4578L193.225 127.486ZM195.506 120.503C195.857 119.334 196.194 118.16 196.517 116.98L63.4251 80.5044C63.3944 80.6164 63.3629 80.7263 63.3305 80.8341L195.506 120.503ZM197.438 113.454C197.731 112.276 198.011 111.092 198.276 109.903L63.5966 79.8137C63.57 79.9328 63.5424 80.0499 63.5138 80.165L197.438 113.454ZM199.025 106.355C199.261 105.17 199.483 103.981 199.691 102.787L63.7419 79.0821C63.72 79.2078 63.6969 79.3316 63.6726 79.4535L199.025 106.355ZM200.269 99.2225C200.448 98.0339 200.613 96.8415 200.765 95.6454L63.8577 78.3114C63.8409 78.4435 63.8229 78.5737 63.8036 78.7019L200.269 99.2225ZM201.175 92.0723C201.298 90.8828 201.407 89.69 201.503 88.4941L63.9409 77.503C63.9299 77.6413 63.9174 77.7777 63.9035 77.9121L201.175 92.0723ZM201.747 84.9212C201.814 83.7334 201.868 82.543 201.909 81.35L63.9889 76.6578C63.984 76.8022 63.9775 76.9446 63.9695 77.0851L201.747 84.9212ZM201.99 77.786C201.997 77.1909 202 76.5952 202 75.999H64C64 76.0737 63.9996 76.1479 63.9987 76.2216L201.99 77.786Z" fill="white" fill-opacity="0.7" mask="url(#path-1-inside-1_587_583)"/>
</mask>
<g mask="url(#mask0_587_583)">
<path d="M63.912 86.831C67.368 87.695 70.632 89.759 73.704 93.023C76.872 96.191 79.608 99.695 81.912 103.535C84.312 107.279 87.192 112.223 90.552 118.367C93.144 123.263 95.208 126.959 96.744 129.455C98.376 131.951 99.864 133.391 101.208 133.775L106.536 135.359V143.999H83.784C81.384 143.999 79.032 142.175 76.728 138.527C74.52 134.879 71.592 129.167 67.944 121.391C63.912 112.655 60.36 105.983 57.288 101.375C54.312 96.767 51.144 94.463 47.784 94.463H41.016V133.775L53.832 135.503V143.999H9.048V135.359L20.136 133.775V47.807L9.048 45.935V37.007H51.96V45.935L41.016 47.807V86.399H51.528L77.304 47.807L66.504 45.935V37.007H104.52V45.935L92.568 47.807L63.912 86.831Z" fill="white" fill-opacity="0.7"/>
</g>
</svg>
