<svg width="117" height="126" viewBox="0 0 117 126" fill="none" xmlns="http://www.w3.org/2000/svg">
<mask id="mask0_587_580" style="mask-type:alpha" maskUnits="userSpaceOnUse" x="0" y="0" width="117" height="126">
<path d="M116.936 60.0161C116.964 60.6753 116.983 61.3372 116.993 62.0016L90.4956 62.3839C90.4985 62.5886 90.5 62.794 90.5 63C90.5 63.206 90.4985 63.4114 90.4956 63.6161L116.993 63.9984C116.983 64.6628 116.964 65.3247 116.936 65.9839L90.4603 64.8376C90.4426 65.2462 90.4191 65.6524 90.3898 66.0561L116.82 67.9724C116.772 68.6351 116.715 69.2949 116.648 69.9517L90.2845 67.2646C90.2434 67.6679 90.1965 68.0687 90.1441 68.4669L116.417 71.9276C116.33 72.5872 116.234 73.2435 116.128 73.8963L89.9688 69.661C89.9046 70.0579 89.8347 70.4522 89.7594 70.8436L115.782 75.852C115.656 76.5055 115.521 77.1554 115.376 77.8013L89.5149 72.0191C89.4276 72.4098 89.3347 72.7975 89.2365 73.1823L114.913 79.7355C114.749 80.3788 114.576 81.0179 114.393 81.6527L88.9246 74.3324C88.8145 74.7154 88.699 75.0954 88.5783 75.4723L113.815 83.558C113.612 84.1906 113.4 84.8187 113.179 85.4421L88.1992 76.5967C88.0671 76.9698 87.9298 77.3395 87.7874 77.7059L112.488 87.3054C112.247 87.9252 111.997 88.5399 111.738 89.1495L87.3425 78.8008C87.1888 79.1633 87.03 79.5222 86.8663 79.8774L110.934 90.9677C110.656 91.5708 110.37 92.1684 110.074 92.7603L86.3587 80.9359C86.1838 81.2866 86.0042 81.6334 85.8198 81.9762L109.159 94.5275C108.845 95.1122 108.522 95.6911 108.19 96.2637L85.2513 82.9952C85.0566 83.3319 84.8572 83.6644 84.6535 83.9926L107.168 97.9691C106.818 98.5336 106.459 99.0917 106.092 99.6431L84.0266 84.9681C83.8127 85.2897 83.5946 85.6067 83.3724 85.919L104.965 101.281C104.58 101.822 104.188 102.356 103.787 102.883L82.6915 86.8448C82.4596 87.1498 82.2237 87.45 81.9841 87.7452L102.558 104.448C102.14 104.963 101.713 105.471 101.28 105.971L81.2523 88.6177C81.0041 88.9042 80.7522 89.1855 80.4969 89.4616L99.9541 107.452C99.5032 107.94 99.045 108.42 98.5796 108.891L79.7181 90.2769C79.4547 90.5438 79.1881 90.8053 78.9182 91.0613L97.1597 110.284C96.6786 110.74 96.1904 111.189 95.6953 111.628L78.0983 91.8142C77.8212 92.0602 77.5412 92.3007 77.2585 92.5354L94.1859 112.924C93.6755 113.348 93.1583 113.763 92.6347 114.169L76.401 93.2234C76.1122 93.4472 75.8208 93.6653 75.527 93.8775L91.0427 115.36C90.5049 115.749 89.9608 116.128 89.4106 116.497L74.6371 94.4975C74.3379 94.6983 74.0365 94.8933 73.7329 95.0824L87.7407 117.578C87.1778 117.928 86.6091 118.269 86.0346 118.599L72.8156 95.6318C72.5077 95.809 72.1977 95.9802 71.8859 96.1455L84.2938 119.561C83.7081 119.872 83.117 120.172 82.5205 120.461L70.9453 96.6229C70.6301 96.776 70.3131 96.923 69.9943 97.0641L80.7163 121.298C80.1103 121.566 79.4992 121.824 78.8832 122.07L69.0338 97.4687C68.7126 97.5973 68.3897 97.7199 68.0652 97.8365L77.0245 122.776C76.4013 123 75.7734 123.213 75.141 123.415L67.0882 98.1677C66.7615 98.2719 66.4332 98.3701 66.1031 98.4623L73.2346 123.985C72.5976 124.163 71.9564 124.329 71.3112 124.485L65.1122 98.7199C64.7812 98.7996 64.4484 98.8733 64.1138 98.941L69.3696 124.915C68.7205 125.046 68.0677 125.166 67.4112 125.274L63.1074 99.1255C62.7725 99.1807 62.4356 99.2299 62.0968 99.273L65.4457 125.561C64.7901 125.644 64.1311 125.716 63.469 125.776L61.0784 99.384C60.7383 99.4148 60.396 99.4396 60.0514 99.4582L61.4823 125.92C60.8237 125.955 60.1623 125.979 59.4982 125.991L59.0208 99.4953C58.8478 99.4984 58.6742 99.5 58.5 99.5C58.3258 99.5 58.1522 99.4984 57.9792 99.4953L57.5018 125.991C56.8377 125.979 56.1763 125.955 55.5177 125.92L56.9486 99.4582C56.604 99.4396 56.2617 99.4148 55.9216 99.384L53.531 125.776C52.8689 125.716 52.2099 125.644 51.5543 125.561L54.9032 99.273C54.5644 99.2299 54.2275 99.1807 53.8926 99.1255L49.5888 125.274C48.9323 125.166 48.2795 125.046 47.6304 124.915L52.8862 98.941C52.5516 98.8733 52.2188 98.7996 51.8878 98.7199L45.6888 124.485C45.0436 124.329 44.4024 124.163 43.7654 123.985L50.8969 98.4623C50.5668 98.3701 50.2385 98.2719 49.9118 98.1677L41.859 123.415C41.2266 123.213 40.5987 123 39.9755 122.776L48.9348 97.8365C48.6103 97.7199 48.2874 97.5973 47.9662 97.4687L38.1168 122.07C37.5008 121.824 36.8897 121.566 36.2837 121.298L47.0057 97.0641C46.6869 96.923 46.3699 96.776 46.0547 96.6229L34.4795 120.461C33.883 120.172 33.2919 119.872 32.7062 119.561L45.1141 96.1455C44.8023 95.9802 44.4923 95.809 44.1844 95.6318L30.9654 118.599C30.3909 118.269 29.8221 117.928 29.2593 117.578L43.2671 95.0824C42.9635 94.8933 42.6621 94.6983 42.3629 94.4975L27.5894 116.497C27.0392 116.128 26.4951 115.749 25.9573 115.36L41.473 93.8775C41.1792 93.6653 40.8878 93.4472 40.599 93.2234L24.3653 114.169C23.8417 113.763 23.3245 113.348 22.8141 112.924L39.7415 92.5354C39.4588 92.3007 39.1788 92.0602 38.9017 91.8142L21.3047 111.628C20.8096 111.189 20.3214 110.74 19.8403 110.284L38.0818 91.0613C37.8119 90.8053 37.5453 90.5438 37.2819 90.2769L18.4204 108.891C17.955 108.42 17.4968 107.94 17.0459 107.452L36.5031 89.4616C36.2478 89.1855 35.9959 88.9042 35.7477 88.6177L15.72 105.971C15.2865 105.471 14.8605 104.963 14.4421 104.448L35.0159 87.7452C34.7763 87.45 34.5404 87.1498 34.3085 86.8448L13.2128 102.883C12.8123 102.356 12.4195 101.822 12.0347 101.281L33.6276 85.919C33.4054 85.6067 33.1873 85.2897 32.9734 84.9681L10.9077 99.6431C10.541 99.0917 10.1823 98.5336 9.83187 97.9691L32.3465 83.9926C32.1427 83.6644 31.9434 83.3319 31.7487 82.9952L8.80971 96.2638C8.47845 95.6911 8.1555 95.1122 7.84102 94.5275L31.1802 81.9762C30.9958 81.6334 30.8162 81.2866 30.6413 80.9359L6.92563 92.7603C6.6305 92.1684 6.34389 91.5708 6.066 90.9677L30.1337 79.8774C29.97 79.5222 29.8112 79.1633 29.6575 78.8008L5.26168 89.1495C5.00311 88.5399 4.75329 87.9252 4.51242 87.3054L29.2126 77.7059C29.0702 77.3395 28.9329 76.9698 28.8008 76.5967L3.82065 85.4421C3.59992 84.8187 3.38812 84.1906 3.18541 83.558L28.4217 75.4723C28.301 75.0954 28.1855 74.7154 28.0754 74.3324L2.60655 81.6527C2.42408 81.0179 2.25068 80.3787 2.08651 79.7355L27.7635 73.1823C27.6653 72.7975 27.5724 72.4098 27.4851 72.0191L1.6236 77.8013C1.47917 77.1553 1.34399 76.5055 1.2182 75.8519L27.2406 70.8436C27.1653 70.4522 27.0954 70.0579 27.0312 69.661L0.871801 73.8963C0.766102 73.2435 0.669735 72.5872 0.582854 71.9276L26.8559 68.4669C26.8035 68.0687 26.7566 67.6679 26.7155 67.2646L0.352093 69.9517C0.28515 69.2949 0.227582 68.6351 0.179535 67.9724L26.6102 66.0561C26.5809 65.6524 26.5573 65.2462 26.5397 64.8376L0.064459 65.9839C0.0359166 65.3247 0.0167822 64.6628 0.00719743 63.9984L26.5044 63.6161C26.5015 63.4114 26.5 63.206 26.5 63C26.5 62.794 26.5015 62.5886 26.5044 62.3839L0.00719746 62.0016C0.0167823 61.3372 0.0359166 60.6753 0.0644591 60.0161L26.5397 61.1624C26.5573 60.7538 26.5809 60.3476 26.6102 59.9439L0.179535 58.0276C0.227582 57.3649 0.28515 56.7051 0.352093 56.0483L26.7155 58.7354C26.7566 58.3321 26.8035 57.9313 26.8559 57.5331L0.582854 54.0724C0.669736 53.4128 0.766103 52.7565 0.871802 52.1037L27.0312 56.339C27.0954 55.9421 27.1653 55.5478 27.2406 55.1564L1.2182 50.1481C1.34399 49.4945 1.47917 48.8446 1.6236 48.1987L27.4851 53.9809C27.5724 53.5902 27.6653 53.2025 27.7635 52.8177L2.08651 46.2645C2.25068 45.6212 2.42408 44.9821 2.60655 44.3473L28.0754 51.6676C28.1855 51.2846 28.301 50.9046 28.4217 50.5277L3.18541 42.442C3.38812 41.8094 3.59992 41.1813 3.82065 40.5579L28.8008 49.4033C28.9329 49.0302 29.0702 48.6605 29.2126 48.2941L4.51242 38.6946C4.7533 38.0748 5.00311 37.46 5.26168 36.8505L29.6575 47.1992C29.8112 46.8367 29.97 46.4778 30.1337 46.1226L6.066 35.0323C6.3439 34.4292 6.6305 33.8316 6.92563 33.2397L30.6413 45.0641C30.8162 44.7134 30.9958 44.3666 31.1802 44.0238L7.84102 31.4725C8.1555 30.8878 8.47846 30.3089 8.80971 29.7362L31.7487 43.0048C31.9434 42.6681 32.1427 42.3356 32.3465 42.0074L9.83187 28.0309C10.1823 27.4664 10.541 26.9083 10.9077 26.3569L32.9734 41.0318C33.1873 40.7103 33.4054 40.3933 33.6276 40.081L12.0347 24.7187C12.4195 24.1779 12.8123 23.644 13.2128 23.1171L34.3085 39.1552C34.5404 38.8502 34.7763 38.55 35.0159 38.2548L14.4421 21.5525C14.8605 21.0371 15.2865 20.5292 15.72 20.0289L35.7477 37.3823C35.9959 37.0959 36.2478 36.8145 36.5031 36.5384L17.0459 18.5476C17.4968 18.06 17.955 17.5803 18.4204 17.1088L37.2819 35.7231C37.5453 35.4562 37.8119 35.1947 38.0818 34.9387L19.8403 15.7163C20.3214 15.2597 20.8096 14.8115 21.3047 14.3718L38.9017 34.1858C39.1788 33.9398 39.4588 33.6993 39.7415 33.4646L22.8141 13.0756C23.3245 12.6518 23.8417 12.2368 24.3653 11.831L40.599 32.7766C40.8878 32.5528 41.1792 32.3347 41.473 32.1225L25.9573 10.6397C26.4951 10.2512 27.0392 9.87218 27.5894 9.50269L42.3629 31.5025C42.6621 31.3017 42.9635 31.1067 43.2671 30.9176L29.2593 8.42248C29.8222 8.072 30.3909 7.73132 30.9654 7.40067L44.1844 30.3682C44.4923 30.191 44.8023 30.0198 45.1141 29.8545L32.7062 6.43881C33.2919 6.12849 33.883 5.8284 34.4795 5.53877L46.0547 29.3771C46.3699 29.224 46.6869 29.077 47.0057 28.9359L36.2837 4.7019C36.8897 4.43379 37.5008 4.17631 38.1168 3.9297L47.9662 28.5313C48.2873 28.4027 48.6103 28.2801 48.9348 28.1635L39.9755 3.22399C40.5987 3.0001 41.2266 2.78719 41.859 2.58548L49.9118 27.8323C50.2385 27.7281 50.5668 27.6299 50.8969 27.5377L43.7654 2.01529C44.4024 1.8373 45.0436 1.67057 45.6888 1.51533L51.8878 27.2801C52.2188 27.2004 52.5516 27.1267 52.8862 27.059L47.6304 1.08545C48.2795 0.954111 48.9323 0.834317 49.5888 0.726273L53.8926 26.8744C54.2275 26.8193 54.5644 26.7701 54.9032 26.727L51.5543 0.439425C52.2099 0.355898 52.8689 0.284047 53.531 0.224072L55.9216 26.616C56.2617 26.5852 56.604 26.5604 56.9486 26.5418L55.5177 0.0804469C56.1763 0.0448352 56.8377 0.0209516 57.5018 0.00898606L57.9792 26.5047C58.1522 26.5016 58.3258 26.5 58.5 26.5C58.6742 26.5 58.8478 26.5016 59.0208 26.5047L59.4982 0.00898593C60.1623 0.0209514 60.8237 0.0448348 61.4823 0.0804463L60.0514 26.5418C60.396 26.5604 60.7383 26.5852 61.0784 26.616L63.469 0.224071C64.1311 0.284046 64.7901 0.355896 65.4457 0.439424L62.0968 26.727C62.4356 26.7701 62.7725 26.8193 63.1074 26.8744L67.4112 0.726272C68.0676 0.834316 68.7205 0.95411 69.3695 1.08545L64.1138 27.059C64.4483 27.1267 64.7812 27.2004 65.1122 27.2801L71.3112 1.51533C71.9564 1.67057 72.5976 1.8373 73.2346 2.01529L66.1031 27.5377C66.4332 27.6299 66.7615 27.7281 67.0882 27.8323L75.141 2.58548C75.7734 2.78719 76.4013 3.0001 77.0245 3.22399L68.0652 28.1635C68.3897 28.2801 68.7126 28.4027 69.0338 28.5313L78.8832 3.9297C79.4992 4.17631 80.1103 4.43378 80.7163 4.7019L69.9943 28.9359C70.3131 29.077 70.6301 29.224 70.9453 29.3771L82.5205 5.53877C83.117 5.8284 83.7081 6.12849 84.2938 6.43882L71.8859 29.8545C72.1977 30.0198 72.5077 30.191 72.8156 30.3682L86.0346 7.40068C86.6091 7.73132 87.1778 8.072 87.7407 8.42248L73.7329 30.9176C74.0365 31.1067 74.3379 31.3017 74.6371 31.5025L89.4106 9.50269C89.9608 9.87218 90.5049 10.2512 91.0427 10.6397L75.527 32.1225C75.8208 32.3347 76.1122 32.5528 76.401 32.7766L92.6347 11.831C93.1583 12.2368 93.6755 12.6518 94.1859 13.0756L77.2585 33.4646C77.5412 33.6993 77.8212 33.9398 78.0983 34.1858L95.6953 14.3718C96.1904 14.8115 96.6786 15.2597 97.1597 15.7163L78.9182 34.9387C79.1881 35.1947 79.4547 35.4562 79.7181 35.7231L98.5796 17.1088C99.045 17.5803 99.5032 18.06 99.9541 18.5476L80.4969 36.5384C80.7522 36.8145 81.0041 37.0958 81.2523 37.3823L101.28 20.0289C101.713 20.5292 102.14 21.0371 102.558 21.5525L81.9841 38.2548C82.2237 38.55 82.4596 38.8502 82.6915 39.1552L103.787 23.1171C104.188 23.644 104.58 24.1779 104.965 24.7187L83.3724 40.081C83.5946 40.3933 83.8127 40.7103 84.0266 41.0319L106.092 26.3569C106.459 26.9083 106.818 27.4664 107.168 28.0309L84.6535 42.0074C84.8572 42.3356 85.0566 42.6681 85.2513 43.0048L108.19 29.7362C108.522 30.3089 108.845 30.8878 109.159 31.4725L85.8198 44.0238C86.0042 44.3666 86.1838 44.7134 86.3587 45.0641L110.074 33.2397C110.37 33.8316 110.656 34.4292 110.934 35.0323L86.8663 46.1226C87.03 46.4778 87.1888 46.8367 87.3425 47.1992L111.738 36.8505C111.997 37.4601 112.247 38.0748 112.488 38.6946L87.7874 48.2941C87.9298 48.6605 88.0671 49.0302 88.1992 49.4033L113.179 40.5579C113.4 41.1813 113.612 41.8094 113.815 42.442L88.5783 50.5277C88.699 50.9046 88.8145 51.2846 88.9246 51.6677L114.393 44.3473C114.576 44.9821 114.749 45.6213 114.913 46.2645L89.2365 52.8177C89.3347 53.2025 89.4276 53.5902 89.5149 53.9809L115.376 48.1987C115.521 48.8447 115.656 49.4945 115.782 50.1481L89.7594 55.1564C89.8347 55.5478 89.9046 55.9421 89.9688 56.339L116.128 52.1037C116.234 52.7565 116.33 53.4128 116.417 54.0724L90.1441 57.5331C90.1965 57.9313 90.2434 58.3321 90.2845 58.7354L116.648 56.0483C116.715 56.7051 116.772 57.3649 116.82 58.0276L90.3898 59.9439C90.4191 60.3476 90.4426 60.7538 90.4603 61.1624L116.936 60.0161Z" stroke="white" stroke-opacity="0.7" stroke-width="53" stroke-dasharray="2 2"/>
</mask>
<g mask="url(#mask0_587_580)">
<path d="M57.12 117.584C41.472 117.584 29.76 112.688 21.984 102.896C14.208 93.104 10.32 79.76 10.32 62.864C10.32 51.824 12.336 42.128 16.368 33.776C20.496 25.424 26.256 18.992 33.648 14.48C41.04 9.96799 49.536 7.712 59.136 7.712C74.976 7.712 86.832 12.416 94.704 21.824C102.672 31.136 106.656 44.192 106.656 60.992C106.656 72.128 104.544 82.016 100.32 90.656C96.192 99.2 90.384 105.824 82.896 110.528C75.408 115.232 66.816 117.584 57.12 117.584ZM58.56 16.496C50.688 16.496 44.544 20.384 40.128 28.16C35.712 35.936 33.504 47.456 33.504 62.72C33.504 77.792 35.616 89.264 39.84 97.136C44.16 104.912 50.304 108.8 58.272 108.8C66.048 108.8 72.144 104.72 76.56 96.56C80.976 88.304 83.184 76.448 83.184 60.992C83.184 46.016 81.072 34.88 76.848 27.584C72.624 20.192 66.528 16.496 58.56 16.496Z" fill="white" fill-opacity="0.7"/>
</g>
</svg>
