<svg width="98" height="107" viewBox="0 0 98 107" fill="none" xmlns="http://www.w3.org/2000/svg">
<path d="M54.912 49.831C58.368 50.695 61.632 52.759 64.704 56.023C67.872 59.191 70.608 62.695 72.912 66.535C75.312 70.279 78.192 75.223 81.552 81.367C84.144 86.263 86.208 89.959 87.744 92.455C89.376 94.951 90.864 96.391 92.208 96.775L97.536 98.359V106.999H74.784C72.384 106.999 70.032 105.175 67.728 101.527C65.52 97.879 62.592 92.167 58.944 84.391C54.912 75.655 51.36 68.983 48.288 64.375C45.312 59.767 42.144 57.463 38.784 57.463H32.016V96.775L44.832 98.503V106.999H0.0480005V98.359L11.136 96.775V10.807L0.0480005 8.93502V0.00701904H42.96V8.93502L32.016 10.807V49.399H42.528L68.304 10.807L57.504 8.93502V0.00701904H95.52V8.93502L83.568 10.807L54.912 49.831Z" fill="white" fill-opacity="0.7"/>
</svg>
